<svg width="115" height="40" viewBox="0 0 115 40" fill="none" xmlns="http://www.w3.org/2000/svg">
<path d="M12.0817 11.6653V12.7551H2.89587V11.6653H12.0817ZM3.19688 4.8875V20H1.9202V4.8875H3.19688ZM13.1093 4.8875V20H11.8326V4.8875H13.1093ZM15.9948 14.5612V14.2186C15.9948 13.4021 16.1124 12.6479 16.3477 11.9559C16.5829 11.264 16.9185 10.6654 17.3545 10.1603C17.7973 9.65513 18.3267 9.26417 18.9425 8.98739C19.5584 8.70368 20.2434 8.56183 20.9977 8.56183C21.7588 8.56183 22.4473 8.70368 23.0632 8.98739C23.679 9.26417 24.2084 9.65513 24.6512 10.1603C25.0941 10.6654 25.4331 11.264 25.6684 11.9559C25.9037 12.6479 26.0213 13.4021 26.0213 14.2186V14.5612C26.0213 15.3777 25.9037 16.1319 25.6684 16.8239C25.4331 17.5089 25.0941 18.104 24.6512 18.6092C24.2153 19.1143 23.6894 19.5087 23.0735 19.7924C22.4577 20.0692 21.7727 20.2076 21.0184 20.2076C20.2573 20.2076 19.5688 20.0692 18.9529 19.7924C18.3371 19.5087 17.8077 19.1143 17.3648 18.6092C16.922 18.104 16.5829 17.5089 16.3477 16.8239C16.1124 16.1319 15.9948 15.3777 15.9948 14.5612ZM17.2299 14.2186V14.5612C17.2299 15.177 17.3129 15.7617 17.479 16.3153C17.6451 16.8619 17.8873 17.3498 18.2056 17.7788C18.5239 18.2009 18.9183 18.533 19.3888 18.7752C19.8594 19.0174 20.4026 19.1385 21.0184 19.1385C21.6273 19.1385 22.1636 19.0174 22.6272 18.7752C23.0978 18.533 23.4922 18.2009 23.8105 17.7788C24.1288 17.3498 24.3675 16.8619 24.5267 16.3153C24.6927 15.7617 24.7758 15.177 24.7758 14.5612V14.2186C24.7758 13.6097 24.6927 13.0319 24.5267 12.4853C24.3675 11.9386 24.1253 11.4508 23.8001 11.0218C23.4818 10.5927 23.0874 10.2537 22.6169 10.0046C22.1463 9.75547 21.6066 9.63092 20.9977 9.63092C20.3887 9.63092 19.849 9.75547 19.3785 10.0046C18.9148 10.2537 18.5204 10.5927 18.1952 11.0218C17.8769 11.4508 17.6347 11.9386 17.4686 12.4853C17.3095 13.0319 17.2299 13.6097 17.2299 14.2186ZM43.49 15.2877H44.7666C44.6628 16.3049 44.3826 17.1837 43.9259 17.9241C43.4692 18.6576 42.8464 19.2215 42.0576 19.616C41.2687 20.0104 40.3173 20.2076 39.2032 20.2076C38.3452 20.2076 37.5667 20.045 36.8679 19.7198C36.1759 19.3945 35.5808 18.9344 35.0826 18.3393C34.5844 17.7373 34.2003 17.0176 33.9305 16.1804C33.6606 15.3431 33.5257 14.4124 33.5257 13.3883V11.4992C33.5257 10.4751 33.6606 9.54788 33.9305 8.71752C34.2003 7.88025 34.5878 7.1606 35.093 6.55859C35.5981 5.95658 36.2036 5.49297 36.9094 5.16775C37.6152 4.84252 38.4109 4.67991 39.2967 4.67991C40.3692 4.67991 41.2964 4.87712 42.0783 5.27154C42.8603 5.65904 43.4761 6.21953 43.9259 6.95301C44.3826 7.6865 44.6628 8.57221 44.7666 9.61016H43.49C43.3931 8.79364 43.1786 8.10167 42.8464 7.53426C42.5143 6.96685 42.0541 6.53437 41.466 6.23683C40.8847 5.93237 40.1616 5.78013 39.2967 5.78013C38.5908 5.78013 37.9612 5.91507 37.4076 6.18493C36.854 6.4548 36.3835 6.8423 35.996 7.34743C35.6085 7.84565 35.3109 8.4442 35.1033 9.14308C34.9027 9.84196 34.8023 10.6204 34.8023 11.4785V13.3883C34.8023 14.2186 34.8992 14.9833 35.093 15.6821C35.2867 16.381 35.5704 16.9865 35.9441 17.4985C36.3247 18.0106 36.7883 18.4085 37.3349 18.6922C37.8816 18.9759 38.5044 19.1177 39.2032 19.1177C40.0959 19.1177 40.8397 18.9759 41.4348 18.6922C42.0368 18.4016 42.5039 17.9725 42.836 17.4051C43.1682 16.8377 43.3862 16.1319 43.49 15.2877ZM48.825 4.05714V20H47.5898V4.05714H48.825ZM48.5448 13.6893L47.9946 13.3779C48.0362 12.7136 48.1711 12.0908 48.3994 11.5096C48.6278 10.9283 48.9357 10.4163 49.3232 9.97344C49.7176 9.53058 50.1778 9.1846 50.7037 8.93549C51.2365 8.68638 51.8247 8.56183 52.4682 8.56183C53.0287 8.56183 53.5304 8.63795 53.9732 8.79018C54.4161 8.94241 54.7932 9.1846 55.1046 9.51674C55.416 9.84888 55.6512 10.2744 55.8104 10.7934C55.9764 11.3124 56.0595 11.9455 56.0595 12.6929V20H54.8139V12.6825C54.8139 11.9075 54.7067 11.302 54.4922 10.8661C54.2777 10.4232 53.9732 10.1084 53.5788 9.92154C53.1844 9.73471 52.7173 9.64129 52.1776 9.64129C51.5825 9.64129 51.06 9.77277 50.6103 10.0357C50.1674 10.2917 49.7937 10.6273 49.4893 11.0425C49.1917 11.4508 48.9634 11.8902 48.8042 12.3607C48.6451 12.8243 48.5586 13.2672 48.5448 13.6893ZM60.6368 8.76942V20H59.4017V8.76942H60.6368ZM59.1837 5.52065C59.1837 5.28538 59.2564 5.08817 59.4017 4.92902C59.5539 4.76295 59.7615 4.67991 60.0244 4.67991C60.2874 4.67991 60.495 4.76295 60.6472 4.92902C60.8064 5.08817 60.8859 5.28538 60.8859 5.52065C60.8859 5.749 60.8064 5.94621 60.6472 6.11228C60.495 6.27143 60.2874 6.351 60.0244 6.351C59.7615 6.351 59.5539 6.27143 59.4017 6.11228C59.2564 5.94621 59.1837 5.749 59.1837 5.52065ZM69.9057 4.8875H71.1927L76.7769 18.194L82.3714 4.8875H83.6481L77.2647 20H76.2891L69.9057 4.8875ZM69.5113 4.8875H70.6426L70.7776 13.3987V20H69.5113V4.8875ZM82.9319 4.8875H84.0633V20H82.7866V13.3987L82.9319 4.8875ZM88.9935 8.76942V20H87.7584V8.76942H88.9935ZM87.5404 5.52065C87.5404 5.28538 87.6131 5.08817 87.7584 4.92902C87.9106 4.76295 88.1182 4.67991 88.3811 4.67991C88.6441 4.67991 88.8517 4.76295 89.0039 4.92902C89.1631 5.08817 89.2426 5.28538 89.2426 5.52065C89.2426 5.749 89.1631 5.94621 89.0039 6.11228C88.8517 6.27143 88.6441 6.351 88.3811 6.351C88.1182 6.351 87.9106 6.27143 87.7584 6.11228C87.6131 5.94621 87.5404 5.749 87.5404 5.52065ZM93.6228 11.1671V20H92.3876V8.76942H93.5709L93.6228 11.1671ZM93.3425 13.6893L92.7924 13.3779C92.8339 12.7136 92.9689 12.0908 93.1972 11.5096C93.4256 10.9283 93.7335 10.4163 94.121 9.97344C94.5154 9.53058 94.9756 9.1846 95.5014 8.93549C96.0343 8.68638 96.6224 8.56183 97.266 8.56183C97.8264 8.56183 98.3281 8.63795 98.771 8.79018C99.2138 8.94241 99.591 9.1846 99.9023 9.51674C100.214 9.84888 100.449 10.2744 100.608 10.7934C100.774 11.3124 100.857 11.9455 100.857 12.6929V20H99.6117V12.6825C99.6117 11.9075 99.5045 11.302 99.29 10.8661C99.0754 10.4232 98.771 10.1084 98.3766 9.92154C97.9821 9.73471 97.5151 9.64129 96.9753 9.64129C96.3802 9.64129 95.8578 9.77277 95.408 10.0357C94.9652 10.2917 94.5915 10.6273 94.2871 11.0425C93.9895 11.4508 93.7612 11.8902 93.602 12.3607C93.4429 12.8243 93.3564 13.2672 93.3425 13.6893ZM105.31 4.05714V20H104.075V4.05714H105.31ZM105.03 13.6893L104.48 13.3779C104.521 12.7136 104.656 12.0908 104.884 11.5096C105.113 10.9283 105.421 10.4163 105.808 9.97344C106.203 9.53058 106.663 9.1846 107.189 8.93549C107.722 8.68638 108.31 8.56183 108.953 8.56183C109.514 8.56183 110.015 8.63795 110.458 8.79018C110.901 8.94241 111.278 9.1846 111.59 9.51674C111.901 9.84888 112.136 10.2744 112.295 10.7934C112.461 11.3124 112.545 11.9455 112.545 12.6929V20H111.299V12.6825C111.299 11.9075 111.192 11.302 110.977 10.8661C110.763 10.4232 110.458 10.1084 110.064 9.92154C109.669 9.73471 109.202 9.64129 108.663 9.64129C108.068 9.64129 107.545 9.77277 107.095 10.0357C106.652 10.2917 106.279 10.6273 105.974 11.0425C105.677 11.4508 105.448 11.8902 105.289 12.3607C105.13 12.8243 105.044 13.2672 105.03 13.6893Z" fill="black"/>
<rect x="53" y="30" width="10" height="10" fill="#E21313"/>
</svg>
