<?xml version="1.0" encoding="UTF-8"?>
<!-- Generator: Adobe Illustrator 24.1.0, SVG Export Plug-In . SVG Version: 6.00 Build 0)  -->
<svg version="1.1" id="Layer_1" xmlns="http://www.w3.org/2000/svg" xmlns:xlink="http://www.w3.org/1999/xlink" x="0px" y="0px" viewBox="0 0 32.14 35" style="enable-background:new 0 0 32.14 35;" xml:space="preserve">
<style type="text/css">
	.st0{fill:#ED1C24;}
	.st1{fill:#161616;}
</style>
<g>
	<g>
		<rect x="9.03" y="4.62" class="st0" width="4.7" height="4.7"/>
		<polygon class="st0" points="18.35,0 18.35,9.32 18.35,13.95 23.05,13.95 23.05,18.64 18.35,18.64 18.35,13.95 13.72,13.95     9.03,13.95 9.03,18.64 4.4,18.64 13.72,27.97 18.35,27.97 18.35,23.27 27.67,23.27 27.67,9.32   "/>
	</g>
	<g>
		<g>
			<path class="st1" d="M5.12,31.21c-0.07-0.18-0.18-0.33-0.34-0.46c-0.16-0.14-0.39-0.25-0.67-0.32c-0.28-0.08-0.64-0.12-1.07-0.12     H0V35h1.35v-1.62h1.69c0.43,0,0.78-0.04,1.07-0.13c0.28-0.08,0.5-0.19,0.66-0.33s0.28-0.29,0.35-0.47     c0.07-0.18,0.1-0.38,0.1-0.59V31.8C5.23,31.59,5.19,31.39,5.12,31.21z M3.81,31.86c0,0.19-0.07,0.34-0.21,0.45     c-0.13,0.1-0.32,0.15-0.59,0.15H1.35v-1.22h1.67c0.27,0,0.46,0.05,0.59,0.15c0.14,0.1,0.2,0.26,0.2,0.45     C3.81,31.83,3.81,31.86,3.81,31.86z"/>
		</g>
		<g>
			<path class="st1" d="M10.35,31.21c-0.07-0.18-0.18-0.33-0.34-0.46c-0.16-0.14-0.39-0.25-0.67-0.32C9.06,30.35,8.7,30.3,8.27,30.3     H5.22V35h1.35v-1.62h1.69c0.43,0,0.78-0.04,1.07-0.13c0.28-0.08,0.5-0.19,0.66-0.33c0.16-0.14,0.28-0.29,0.35-0.47     c0.07-0.18,0.1-0.38,0.1-0.59V31.8C10.46,31.59,10.42,31.39,10.35,31.21z M9.04,31.86c0,0.19-0.07,0.34-0.21,0.45     c-0.13,0.1-0.32,0.15-0.59,0.15H6.58v-1.22h1.67c0.27,0,0.46,0.05,0.59,0.15c0.14,0.1,0.2,0.26,0.2,0.45V31.86z"/>
		</g>
		<g>
			<path class="st1" d="M14.95,30.3L13.21,34l-1.85-3.69H9.83l2.44,4.7h1.79l2.27-4.7C16.34,30.3,14.95,30.3,14.95,30.3z"/>
		</g>
		<g>
			<path class="st1" d="M21.19,31.23V30.3h-4.86V35h1.34v-1.93h3.43v-0.94h-3.43v-0.89H21.19z"/>
		</g>
		<g>
			<path class="st1" d="M25.13,32.59l2.31-2.29h-1.62l-1.47,1.47l-1.41-1.47H21.2l2.28,2.32L21.14,35h1.64l1.51-1.55L25.82,35h1.62     L25.13,32.59z"/>
		</g>
		<rect x="27.44" y="30.3" class="st0" width="4.7" height="4.7"/>
	</g>
</g>
</svg>