<svg width="84" height="32" viewBox="0 0 84 32" fill="none" xmlns="http://www.w3.org/2000/svg">
<rect x="0.5" y="0.5" width="83" height="31" />
<path d="M22.4167 11.9166L18.3334 16L22.4167 20.0833M18.3334 16L27.6667 16L18.3334 16Z" stroke-width="1.16667" stroke-linecap="round" stroke-linejoin="round"/>
<path d="M40.0391 16.0122H37.3364L37.3218 14.877H39.7754C40.1807 14.877 40.5347 14.8086 40.8374 14.6719C41.1401 14.5352 41.3745 14.3398 41.5405 14.0859C41.7114 13.8271 41.7969 13.5195 41.7969 13.1631C41.7969 12.7725 41.7212 12.4551 41.5698 12.2109C41.4233 11.9619 41.1963 11.7812 40.8887 11.6689C40.5859 11.5518 40.2002 11.4932 39.7314 11.4932H37.6514V21H36.2378V10.3359H39.7314C40.2783 10.3359 40.7666 10.3921 41.1963 10.5044C41.626 10.6118 41.9897 10.7827 42.2876 11.0171C42.5903 11.2466 42.8198 11.5396 42.9761 11.896C43.1323 12.2524 43.2104 12.6797 43.2104 13.1777C43.2104 13.6172 43.0981 14.0151 42.8735 14.3716C42.6489 14.7231 42.3364 15.0112 41.936 15.2358C41.5405 15.4604 41.0767 15.6045 40.5444 15.668L40.0391 16.0122ZM39.9731 21H36.7798L37.5781 19.8501H39.9731C40.4224 19.8501 40.8032 19.772 41.1157 19.6157C41.4331 19.4595 41.6748 19.2397 41.8408 18.9565C42.0068 18.6685 42.0898 18.3291 42.0898 17.9385C42.0898 17.543 42.019 17.2012 41.8774 16.9131C41.7358 16.625 41.5137 16.4028 41.2109 16.2466C40.9082 16.0903 40.5176 16.0122 40.0391 16.0122H38.0249L38.0396 14.877H40.7935L41.0938 15.2871C41.6064 15.3311 42.041 15.4775 42.3975 15.7266C42.7539 15.9707 43.0249 16.2832 43.2104 16.6641C43.4009 17.0449 43.4961 17.4648 43.4961 17.9238C43.4961 18.5879 43.3496 19.1494 43.0566 19.6084C42.7686 20.0625 42.3608 20.4092 41.8335 20.6484C41.3062 20.8828 40.686 21 39.9731 21ZM50.0513 19.645V15.5654C50.0513 15.2529 49.9878 14.9819 49.8608 14.7524C49.7388 14.5181 49.5532 14.3374 49.3042 14.2104C49.0552 14.0835 48.7476 14.02 48.3813 14.02C48.0396 14.02 47.7393 14.0786 47.4805 14.1958C47.2266 14.313 47.0264 14.4668 46.8799 14.6572C46.7383 14.8477 46.6675 15.0527 46.6675 15.2725H45.3125C45.3125 14.9893 45.3857 14.7085 45.5322 14.4302C45.6787 14.1519 45.8887 13.9004 46.1621 13.6758C46.4404 13.4463 46.7725 13.2656 47.1582 13.1338C47.5488 12.9971 47.9834 12.9287 48.4619 12.9287C49.0381 12.9287 49.5459 13.0264 49.9854 13.2217C50.4297 13.417 50.7764 13.7124 51.0254 14.1079C51.2793 14.4985 51.4062 14.9893 51.4062 15.5801V19.2715C51.4062 19.5352 51.4282 19.8159 51.4722 20.1138C51.521 20.4116 51.5918 20.668 51.6846 20.8828V21H50.271C50.2026 20.8438 50.1489 20.6362 50.1099 20.3774C50.0708 20.1138 50.0513 19.8696 50.0513 19.645ZM50.2856 16.1953L50.3003 17.1475H48.9307C48.5449 17.1475 48.2007 17.1792 47.8979 17.2427C47.5952 17.3013 47.3413 17.3916 47.1362 17.5137C46.9312 17.6357 46.7749 17.7896 46.6675 17.9751C46.5601 18.1558 46.5063 18.3682 46.5063 18.6123C46.5063 18.8613 46.5625 19.0884 46.6748 19.2935C46.7871 19.4985 46.9556 19.6621 47.1802 19.7842C47.4097 19.9014 47.6904 19.96 48.0225 19.96C48.4375 19.96 48.8037 19.8721 49.1211 19.6963C49.4385 19.5205 49.6899 19.3057 49.8755 19.0518C50.0659 18.7979 50.1685 18.5513 50.1831 18.312L50.7617 18.9639C50.7275 19.1689 50.6348 19.396 50.4834 19.645C50.332 19.894 50.1294 20.1333 49.8755 20.3628C49.6265 20.5874 49.3286 20.7754 48.9819 20.9268C48.6401 21.0732 48.2544 21.1465 47.8247 21.1465C47.2876 21.1465 46.8164 21.0415 46.4111 20.8315C46.0107 20.6216 45.6982 20.3408 45.4736 19.9893C45.2539 19.6328 45.144 19.2349 45.144 18.7954C45.144 18.3706 45.2271 17.9971 45.3931 17.6748C45.5591 17.3477 45.7983 17.0767 46.1108 16.8618C46.4233 16.6421 46.7993 16.4761 47.2388 16.3638C47.6782 16.2515 48.1689 16.1953 48.7109 16.1953H50.2856ZM56.709 20.0332C57.0312 20.0332 57.3291 19.9673 57.6025 19.8354C57.876 19.7036 58.1006 19.5229 58.2764 19.2935C58.4521 19.0591 58.5522 18.793 58.5767 18.4951H59.8657C59.8413 18.9639 59.6826 19.4009 59.3896 19.8062C59.1016 20.2065 58.7231 20.5312 58.2544 20.7803C57.7856 21.0244 57.2705 21.1465 56.709 21.1465C56.1133 21.1465 55.5933 21.0415 55.1489 20.8315C54.7095 20.6216 54.3433 20.3335 54.0503 19.9673C53.7622 19.6011 53.5449 19.1812 53.3984 18.7075C53.2568 18.229 53.186 17.7236 53.186 17.1914V16.8838C53.186 16.3516 53.2568 15.8486 53.3984 15.375C53.5449 14.8965 53.7622 14.4741 54.0503 14.1079C54.3433 13.7417 54.7095 13.4536 55.1489 13.2437C55.5933 13.0337 56.1133 12.9287 56.709 12.9287C57.3291 12.9287 57.8711 13.0557 58.335 13.3096C58.7988 13.5586 59.1626 13.9004 59.4263 14.335C59.6948 14.7646 59.8413 15.2529 59.8657 15.7998H58.5767C58.5522 15.4727 58.4595 15.1772 58.2983 14.9136C58.1421 14.6499 57.9272 14.4399 57.6538 14.2837C57.3853 14.1226 57.0703 14.042 56.709 14.042C56.2939 14.042 55.9448 14.125 55.6616 14.291C55.3833 14.4521 55.1611 14.6719 54.9951 14.9502C54.834 15.2236 54.7168 15.5288 54.6436 15.8657C54.5752 16.1978 54.541 16.5371 54.541 16.8838V17.1914C54.541 17.5381 54.5752 17.8799 54.6436 18.2168C54.7119 18.5537 54.8267 18.8589 54.9878 19.1323C55.1538 19.4058 55.376 19.6255 55.6543 19.7915C55.9375 19.9526 56.2891 20.0332 56.709 20.0332ZM62.7515 9.75V21H61.3892V9.75H62.7515ZM67.5928 13.0752L64.1357 16.7739L62.2021 18.7808L62.0923 17.3379L63.4766 15.6826L65.9375 13.0752H67.5928ZM66.355 21L63.5278 17.2207L64.231 16.0122L67.9517 21H66.355Z" fill="black"/>
</svg>
