<svg width="480" height="404" viewBox="0 0 480 404" fill="none" xmlns="http://www.w3.org/2000/svg">
<g clip-path="url(#clip0_9_1827)">
<rect width="480" height="404" fill="white"/>
<path d="M255.67 226.015L260.109 221.173L269.391 213.909L269.19 220.366L268.988 228.639L263.54 228.235L261.32 232.674L255.67 226.015Z" fill="#ECECEC" stroke="black" stroke-width="0.289173" stroke-linecap="round" stroke-linejoin="round"/>
<path d="M193.32 42.5968L184.644 48.852L174.757 44.8164L172.739 33.7185L177.178 27.8669L188.881 24.2349L195.54 24.4367L198.769 29.4811L194.733 35.131L193.32 42.5968Z" fill="#ECECEC" stroke="black" stroke-width="0.289173" stroke-linecap="round" stroke-linejoin="round"/>
<path d="M240.536 -353.698L258.696 -344.618L270.803 -332.915H286.138L291.385 -337.758L305.308 -341.592L307.931 -330.09L307.325 -325.449L312.975 -311.728L314.186 -299.218L300.263 -301.437L294.412 -296.998L303.895 -286.102L311.765 -270.969L306.72 -270.767L310.554 -264.108L299.456 -271.776V-264.512L286.542 -259.064L292.192 -252.203L282.91 -252.808L275.646 -256.844L273.427 -247.562L265.557 -240.702L261.32 -232.429L248.607 -228.797L243.765 -222.743L234.079 -219.111L236.702 -225.165L232.062 -230.209L236.097 -238.886L227.017 -245.544L220.157 -241.105L212.893 -232.025L210.269 -223.752L200.18 -223.147L197.557 -217.093L207.243 -208.417L216.928 -206.197L219.753 -200.548L230.044 -196.714L237.711 -205.996L249.616 -200.951L256.679 -200.548L261.32 -193.889L247.8 -190.257L245.783 -183.194L238.115 -176.737L236.299 -167.657L250.625 -160.595L259.907 -147.883L271.005 -135.978L282.103 -126.091L285.332 -116.405L279.682 -112.773L284.524 -105.913L292.394 -101.877L294.008 -91.3846L294.21 -81.0939L288.56 -79.8832L284.323 -65.9604L279.682 -48.8091L272.821 -33.4738L259.907 -21.5688L246.59 -10.4709L234.281 -9.05853L228.43 -3.40866L223.789 -7.44424L218.744 -1.18909L204.216 5.46964L192.513 7.28564L191.1 21.0067L184.845 21.8138L180.406 12.3301L182.222 7.48743L166.483 3.25003L161.64 5.46964L149.735 2.03937L143.48 -3.20688L144.086 -10.6728L133.391 -13.0941L127.136 -17.9368L118.863 -11.0763L108.169 -9.46207L99.2904 -9.66385L93.8425 -6.43536L88.3943 -4.61935L92.4299 10.3123L86.3765 9.90881L84.7624 6.88211L83.7535 1.43405L76.0858 5.26785L70.8395 2.84653L61.7595 -1.99625L63.3738 -12.6906L55.9078 -15.3137L51.065 -27.2187L39.7654 -24.9991L38.353 -40.3344L46.8277 -51.2305L45.0116 -61.9248L42.3886 -71.812L36.9404 -74.8387L31.4925 -82.5063L25.2374 -81.4975L12.9288 -83.5153L15.3501 -88.9633L8.08606 -97.0345L1.62897 -91.5865L-8.25806 -94.6131L-19.1542 -86.542L-27.0237 -76.8565L-35.4983 -75.2423L-41.1483 -78.6725L-46.9999 -79.0761L-55.6763 -81.901L-60.9228 -78.6725L-66.169 -68.9871L-69.1957 -79.2779L-75.4508 -76.453L-88.5665 -77.8654L-101.682 -80.6903L-111.771 -86.542L-120.851 -88.9633L-125.896 -95.2184L-132.555 -97.0345L-145.468 -105.509L-155.154 -109.545L-158.988 -106.518L-176.341 -115.598L-188.851 -123.669L-195.308 -137.996L-187.035 -136.18L-188.246 -142.839L-194.299 -149.497L-195.913 -159.99L-211.45 -175.325L-230.62 -180.37L-236.471 -190.459L-245.955 -196.512L-248.981 -200.144L-252.614 -207.408L-253.622 -212.453L-261.088 -215.479L-264.115 -214.067L-270.37 -226.174L-268.151 -228.998L-270.572 -232.025L-262.299 -238.079L-255.842 -240.702L-244.139 -238.886L-242.928 -247.159L-230.014 -248.571L-227.996 -253.817L-214.073 -260.678L-213.67 -263.503L-217.1 -270.969L-211.249 -274.197L-229.005 -296.393L-210.643 -301.437L-206.608 -304.262L-208.625 -327.063L-186.833 -322.826L-183.605 -328.678L-188.649 -341.188L-180.982 -342.399L-177.148 -350.873L-173.717 -351.882L-167.059 -343.004L-155.557 -336.345L-139.011 -331.704L-127.308 -321.414L-124.483 -306.684L-118.43 -301.034L-105.314 -298.814L-90.786 -297.2L-74.6436 -289.129L-67.7831 -287.716L-57.6941 -276.013L-48.2105 -268.346L-36.9109 -268.749L-14.1097 -265.722L-1.19574 -267.538L10.1039 -265.722L29.0712 -257.853H41.5815L48.2403 -254.019L57.1184 -260.88L71.6467 -265.319L86.9819 -265.722L96.8692 -270.162L100.905 -277.022L105.748 -281.461L101.914 -285.699L96.062 -290.541L97.0709 -298.814L103.528 -297.604L115.433 -294.98L121.89 -301.841L134.804 -306.684L137.427 -315.158L142.471 -318.79L156.192 -320.405L165.071 -318.992L163.457 -323.431L148.928 -332.31L138.436 -336.345L133.391 -331.704L122.293 -333.722L117.652 -332.108L112.003 -337.152L111.397 -349.865L110.187 -359.348L125.118 -354.505L133.997 -362.375L130.163 -368.025L129.759 -381.14L132.382 -385.176L127.338 -392.037L119.872 -394.861L123.302 -401.117L133.593 -403.336L146.103 -403.74L163.457 -399.906L175.563 -395.467L191.1 -382.956L198.768 -377.508L207.848 -369.841L220.358 -357.734L240.536 -353.698Z" fill="#ECECEC" stroke="black" stroke-width="0.289173" stroke-linecap="round" stroke-linejoin="round"/>
<path d="M375.124 399.747L376.133 402.37L375.931 406.204L367.658 415.89L357.569 418.715L356.358 417.302L357.771 412.863L363.421 404.994L375.124 399.747Z" fill="#ECECEC" stroke="black" stroke-width="0.289173" stroke-linecap="round" stroke-linejoin="round"/>
<path d="M295.219 389.457L299.053 392.887L306.317 391.878L308.738 397.326L295.219 399.949L287.35 401.765L281.094 401.563L285.534 394.097H291.991L295.219 389.457Z" fill="#ECECEC" stroke="black" stroke-width="0.289173" stroke-linecap="round" stroke-linejoin="round"/>
<path d="M352.322 389.457L350.103 396.721L332.75 400.353L317.616 398.738L318.02 393.896L327.302 391.273L334.162 395.106L341.83 394.097L352.322 389.457Z" fill="#ECECEC" stroke="black" stroke-width="0.289173" stroke-linecap="round" stroke-linejoin="round"/>
<path d="M190.496 372.306L212.288 373.718L215.113 368.27L235.896 374.526L239.528 383L256.478 385.422L269.997 393.089L256.679 397.932L244.371 392.686L234.08 393.089L222.377 392.08L211.884 389.861L198.97 384.816L190.697 383.606L185.855 385.22L165.273 379.772L163.659 374.324L153.368 373.315L161.843 361.006L175.564 361.813L184.442 366.858L189.285 367.867L190.496 372.306Z" fill="#ECECEC" stroke="black" stroke-width="0.289173" stroke-linecap="round" stroke-linejoin="round"/>
<path d="M405.391 329.326L400.952 333.765L393.284 331.344L391.267 325.694L402.768 325.089L405.391 329.326Z" fill="#ECECEC" stroke="black" stroke-width="0.289173" stroke-linecap="round" stroke-linejoin="round"/>
<path d="M442.518 324.686L446.15 334.573L436.869 329.125L427.385 328.116L420.726 328.923L412.857 328.519L415.883 321.457L430.008 320.852L442.518 324.686Z" fill="#ECECEC" stroke="black" stroke-width="0.289173" stroke-linecap="round" stroke-linejoin="round"/>
<path d="M563.182 318.228L561.165 360.4L557.936 402.774L548.654 392.079L537.355 389.456L534.328 393.088L519.8 393.492L525.45 382.999L532.915 379.367L530.898 365.243L526.257 354.548L504.666 343.45L495.384 342.442L478.637 330.335L475.005 336.792L470.565 337.801L468.346 333.16L468.548 327.51L460.073 321.053L472.583 316.412L480.654 316.614L479.847 313.184H463.1L458.66 305.516L448.571 303.095L443.931 296.638L459.266 293.611L465.118 289.374L483.479 294.62L485.296 299.463L487.919 320.448L499.42 328.115L509.509 314.394L522.826 306.727H532.915L542.601 311.166L550.874 315.807L563.182 318.228Z" fill="#ECECEC" stroke="black" stroke-width="0.289173" stroke-linecap="round" stroke-linejoin="round"/>
<path d="M383.397 266.17L374.317 279.084L365.641 281.505L354.744 279.084L335.575 279.689L325.688 281.505L324.074 291.392L334.163 302.894L340.418 297.042L361.807 292.603L360.798 298.454L355.753 296.638L350.709 304.306L340.418 309.351L350.709 325.896L348.489 330.336L358.175 345.267L357.569 353.742L351.314 357.576L347.077 352.935L353.13 342.442L341.629 347.487L339.006 343.855L340.62 338.81L332.751 331.143L334.163 318.632L326.294 322.466L326.697 337.6L326.294 356.163L318.828 357.98L314.187 354.347L318.021 342.442L316.81 329.932L311.967 329.73L308.739 320.852L313.783 312.377L315.599 302.086L321.653 282.514L323.872 277.268L333.558 267.582L342.638 271.416L356.964 273.232L370.08 272.627L381.379 263.345L383.397 266.17Z" fill="#ECECEC" stroke="black" stroke-width="0.289173" stroke-linecap="round" stroke-linejoin="round"/>
<path d="M422.946 270.003L422.341 281.303L416.489 279.89L414.673 287.76L419.314 294.62L416.086 296.234L411.647 287.961L408.216 271.415L410.234 261.125L413.866 256.484L414.875 263.546L421.736 264.555L422.946 270.003Z" fill="#ECECEC" stroke="black" stroke-width="0.289173" stroke-linecap="round" stroke-linejoin="round"/>
<path d="M205.024 258.502L207.041 267.178L214.911 274.644L222.377 272.021L229.641 272.828L236.299 266.371L241.747 265.16L252.643 268.792L261.925 265.968L267.172 248.009L271.409 243.57L274.839 228.84H287.955L298.044 231.06L291.991 242.763L300.869 254.87L299.053 260.923L311.967 272.828L298.448 274.442L294.816 283.321L295.219 295.024L284.121 303.902L283.314 316.816L278.27 336.59L276.857 331.949L263.54 337.801L259.302 329.932L251.231 329.125L245.581 324.887L231.86 329.73L228.026 323.273L220.359 324.08L211.077 322.668L209.866 305.315L204.216 301.683L198.768 290.585L197.154 279.285L198.365 267.178L205.024 258.502Z" fill="#ECECEC" stroke="black" stroke-width="0.289173" stroke-linecap="round" stroke-linejoin="round"/>
<path d="M159.018 360.401L146.507 360.602L137.427 349.908L123.101 339.214L118.46 331.344L110.187 320.852L104.739 311.166L96.2642 293.006L86.3769 282.11L82.9468 271.012L78.5077 260.923L68.015 252.852L61.7599 241.754L52.8815 234.49L40.3713 220.164L39.1606 213.505L46.4247 214.11L64.3831 216.532L74.8756 229.244L84.1574 238.122L90.6145 243.368L101.712 257.291L113.415 257.493L123.101 266.371L129.962 277.267L138.638 283.321L133.997 293.813L140.656 298.252L144.691 298.656L146.507 307.736L150.341 314.798L158.614 316.009L163.86 324.282L160.43 340.424L159.018 360.401Z" fill="#ECECEC" stroke="black" stroke-width="0.289173" stroke-linecap="round" stroke-linejoin="round"/>
<path d="M-158.987 -106.518L-164.637 -100.464L-166.453 -88.3576L-154.75 -83.5149L-143.047 -77.2597L-127.308 -69.9957L-111.771 -68.1796L-104.103 -61.7227L-95.4267 -60.512L-81.5039 -57.4853L-72.222 -57.6871L-72.0203 -62.7316L-75.047 -71.0046L-75.4505 -76.4526L-69.1953 -79.2775L-66.1686 -68.9868L-65.3615 -66.5654L-54.2636 -61.5209L-47.8067 -63.5387L-38.3229 -62.7316L-29.2429 -63.1352L-30.2517 -71.0046L-35.498 -75.2419L-27.0233 -76.8562L-19.1539 -86.5416L-8.25769 -94.6128L1.6293 -91.5861L8.0864 -97.0341L15.3504 -88.9629L12.9292 -83.5149L25.2377 -81.4971L27.2555 -76.6544L23.8251 -74.233L26.6501 -66.3636L18.1754 -68.5832L5.66492 -59.7049L7.48096 -52.2391L3.44537 -41.343L4.05081 -35.0878L0.822388 -24.3934L-8.45969 -27.4201L-6.64362 -13.9009L-8.66141 -9.46173L-6.64362 -4.01372L-11.6881 -0.987015L-20.5665 -21.5685H-23.5932L-24.1984 -13.0938L-31.4624 -19.9543L-29.0411 -27.2184L-24.1984 -28.0255L-20.9699 -38.9216L-27.8305 -41.1412L-38.1212 -40.9394L-49.0174 -42.7554L-51.4386 -51.8355L-56.8868 -52.4409L-66.7738 -58.0907L-69.1953 -49.2124L-59.9135 -42.3519L-65.9669 -37.5091L-67.7827 -32.8682L-60.317 -29.4379L-60.9224 -21.5685L-55.6759 -11.8831L-52.4475 -1.18875L-53.4564 3.65395L-61.1241 3.45216L-74.4416 6.07527L-72.6255 15.7607L-77.4683 23.4283L-92.6017 32.3066L-103.296 47.4401L-110.964 55.7131L-121.053 64.1879L-120.447 70.0395L-125.694 73.268L-135.379 77.9089L-140.625 78.5143L-143.047 88.4015L-139.213 105.351L-137.8 116.045L-141.634 128.354L-140.222 150.348L-146.073 150.953L-150.714 160.84L-146.881 165.28L-157.171 168.912L-160.601 177.588L-165.041 181.422L-176.34 169.315L-182.595 151.155L-187.64 138.039L-192.079 131.986L-198.94 119.476L-202.975 103.333L-205.8 95.2619L-217.705 77.5054L-224.767 52.2829L-230.014 35.7369L-231.628 19.9981L-235.058 7.89134L-250.595 15.7607L-258.667 14.1465L-275.011 -1.59233L-270.168 -6.23325L-274.002 -11.2777L-288.328 -22.3756L-281.871 -31.0522H-257.456L-261.088 -42.1501L-268.15 -48.607L-270.975 -58.696L-279.046 -64.3458L-269.159 -78.0668L-256.043 -77.0579L-246.963 -90.5772L-242.524 -103.693L-234.655 -116.809L-236.673 -126.09L-229.005 -133.556L-239.296 -139.811L-245.147 -148.69L-251.806 -159.989L-247.77 -165.639L-230.619 -162.411L-219.118 -164.429L-211.45 -175.325L-195.913 -159.989L-194.299 -149.497L-188.245 -142.838L-187.035 -136.179L-195.308 -137.995L-188.851 -123.669L-176.34 -115.598L-158.987 -106.518Z" fill="#ECECEC" stroke="black" stroke-width="0.289173" stroke-linecap="round" stroke-linejoin="round"/>
<path d="M168.3 100.508L171.932 109.185L172.133 124.722L153.973 134.811L159.623 142.478L147.718 143.487L138.436 148.734L128.751 146.917L123.504 140.057L116.442 126.74L112.205 111.001L118.46 100.306L132.786 97.885L143.481 99.7011L153.57 104.746L157.605 95.8672L168.3 100.508Z" fill="#ECECEC" stroke="black" stroke-width="0.289173" stroke-linecap="round" stroke-linejoin="round"/>
<path d="M168.3 100.508L157.606 95.867L153.57 104.745L143.481 99.7009L146.508 93.8492L145.701 82.9531L135.006 71.6534L132.383 58.7395L122.294 48.247L113.618 47.4399L112.003 51.879L105.546 52.2826L101.713 50.063L91.0184 57.7306L89.0006 46.0274L89.8077 32.5082L82.14 31.9029L80.3239 24.0335L74.876 19.9979L76.4903 15.3569L84.7632 6.88218L86.3773 9.90887L92.4307 10.3124L88.3951 -4.6193L93.8433 -6.4353L101.915 3.85548L108.977 15.5587H122.698L128.751 26.8584L122.092 30.2886L119.671 34.9296L134.401 42.799L145.902 58.1342L154.781 69.4339L164.668 78.514L168.704 87.5941L168.3 100.508Z" fill="#ECECEC" stroke="black" stroke-width="0.289173" stroke-linecap="round" stroke-linejoin="round"/>
<path d="M84.7627 6.88187L76.4898 15.3566L74.8754 19.9976L68.822 23.0243L63.1721 28.6741L55.3029 29.2794L52.2762 43.2022L47.8369 45.6236L54.8992 56.9232L63.1721 66.4069L69.0238 75.0834L66.1988 86.1813L62.5669 88.6027L66.1988 95.0596L74.8754 105.35L76.8932 112.614L77.2967 118.668L82.7449 130.573L77.4987 142.68L73.0594 155.997L71.2433 146.312L73.8665 136.424L69.4275 128.757L69.0238 114.632L63.7775 107.772L58.3296 92.4365L54.294 76.0923L48.0386 65.1962L41.5818 71.8549L29.8784 80.935L23.2199 79.9261L15.9558 76.8994L17.7717 60.757L13.7361 48.6502L3.04188 33.7186L3.64707 29.0776L-3.21325 27.2616L-12.4953 16.7691L-14.7148 6.2765L-10.4775 8.2943L-11.6881 -0.987587L-6.64365 -4.01428L-8.66145 -9.4623L-6.64365 -13.9015L-8.45972 -27.4207L0.822349 -24.394L4.05078 -35.0884L3.44534 -41.3435L7.48093 -52.2396L5.66487 -59.7054L18.1754 -68.5838L26.65 -66.3642L23.825 -74.2336L27.2555 -76.655L25.2377 -81.4977L31.4928 -82.5066L36.9407 -74.8389L42.3889 -71.8122L45.0119 -61.925L46.828 -51.2307L38.3533 -40.3346L39.7657 -24.9994L51.0653 -27.219L55.9081 -15.3139L63.3741 -12.6908L61.7598 -1.99648L70.8398 2.84628L76.0861 5.2676L83.7538 1.43379L84.7627 6.88187Z" fill="#ECECEC" stroke="black" stroke-width="0.289173" stroke-linecap="round" stroke-linejoin="round"/>
<path d="M116.846 204.021L119.67 205.231L126.733 213.101L131.777 221.777L132.988 230.454L131.979 236.306L133.19 240.745L134.199 248.412L138.436 252.044L143.077 263.546V267.783L135.006 268.792L123.908 259.107L110.187 248.816L108.573 242.157L101.712 233.481L99.6944 222.786L95.2551 215.724L96.0623 206.24L93.2373 200.792L95.0534 198.573L104.739 204.223L105.95 210.881L113.415 209.267L116.846 204.021Z" fill="#ECECEC" stroke="black" stroke-width="0.289173" stroke-linecap="round" stroke-linejoin="round"/>
<path d="M298.044 231.059L287.955 228.84H274.839L271.409 243.569L267.171 248.009L261.925 265.967L252.643 268.792L241.747 265.16L236.299 266.371L229.64 272.828L222.376 272.02L214.91 274.644L207.041 267.178L205.023 258.501L213.498 262.94L222.174 260.519L224.192 249.623L229.035 247.202L242.756 244.377L250.424 234.086L255.67 226.015L261.32 232.673L263.539 228.234L268.987 228.638L269.189 220.365L269.391 213.908L277.664 205.03L282.91 194.941L287.551 194.739L293.806 201.398L294.613 207.047L302.281 210.679L311.966 214.513L311.563 219.558L303.895 220.163L306.115 226.62L298.044 231.059Z" fill="#ECECEC" stroke="black" stroke-width="0.289173" stroke-linecap="round" stroke-linejoin="round"/>
<path d="M391.67 175.57L393.486 184.247L394.696 191.511L391.468 203.214L386.423 190.098L381.581 196.757L385.818 206.241L382.993 212.294L369.07 204.828L365.236 195.345L368.263 189.291L360.595 183.036L357.367 188.484L352.121 187.879L344.05 195.143L342.032 191.309L345.664 180.413L352.524 176.781L358.376 171.938L362.815 177.79L371.29 174.36L372.702 168.508L380.773 168.104L379.159 158.217L389.046 164.271L390.459 170.728L391.67 175.57Z" fill="#ECECEC" stroke="black" stroke-width="0.289173" stroke-linecap="round" stroke-linejoin="round"/>
<path d="M362.21 151.357L358.578 155.594L355.753 163.867L352.525 167.701L344.655 158.822L346.673 155.19L349.296 151.558L349.7 143.689L355.955 142.882L354.946 151.558L362.21 139.048V151.357Z" fill="#ECECEC" stroke="black" stroke-width="0.289173" stroke-linecap="round" stroke-linejoin="round"/>
<path d="M301.07 163.867L286.744 176.175L291.587 167.095L299.254 159.024L305.308 150.146L309.949 137.232L313.177 147.926L306.115 154.989L301.07 163.867Z" fill="#ECECEC" stroke="black" stroke-width="0.289173" stroke-linecap="round" stroke-linejoin="round"/>
<path d="M336.382 130.573L343.646 134.608H350.709L351.112 139.855L346.471 145.504L339.611 149.338L338.602 143.285L338.804 136.626L336.382 130.573Z" fill="#ECECEC" stroke="black" stroke-width="0.289173" stroke-linecap="round" stroke-linejoin="round"/>
<path d="M376.94 126.941L381.782 141.469L372.702 138.039L373.308 142.478L376.94 150.347L371.693 153.374L370.483 144.092L366.851 143.487L364.429 135.617L371.088 136.626L370.483 131.784L362.412 121.896L373.308 122.098L376.94 126.941Z" fill="#ECECEC" stroke="black" stroke-width="0.289173" stroke-linecap="round" stroke-linejoin="round"/>
<path d="M330.531 115.238L328.715 126.538L323.267 120.081L316.204 110.193L325.89 110.597L330.531 115.238Z" fill="#ECECEC" stroke="black" stroke-width="0.289173" stroke-linecap="round" stroke-linejoin="round"/>
<path d="M317.415 44.8164L325.082 48.6502L327.907 45.22L329.521 48.4484L328.715 53.8965L333.961 63.1784L332.75 73.8727L326.898 78.1101L326.697 88.6026L330.732 98.8934L336.786 100.306L341.628 98.8934L356.762 105.956L356.56 113.018L360.797 116.246L360.192 122.098L350.708 115.843L345.664 108.982L343.243 113.825L335.171 105.956L325.082 107.973L319.029 105.149L318.827 99.7005L322.056 96.472L318.222 93.4453L317.415 98.0863L310.756 90.6204L308.133 84.9706L305.913 72.662L311.16 76.8994L308.94 56.5196L310.554 44.8164H317.415Z" fill="#ECECEC" stroke="black" stroke-width="0.289173" stroke-linecap="round" stroke-linejoin="round"/>
<path d="M143.481 99.7011L132.787 97.885L118.46 100.306L112.205 111.001L116.443 126.74L105.748 120.686L96.0628 121.09L96.6683 110.799H86.781L87.1845 125.125L82.7454 144.093L79.9204 155.594L81.3328 164.876L88.7988 165.279L94.2468 177.184L96.87 188.282L103.731 195.748L110.591 197.161L116.846 204.021L113.416 209.267L105.95 210.882L104.739 204.223L95.0539 198.573L93.2379 200.793L88.5971 195.95L86.1756 189.493L79.7187 182.229L73.867 175.974L72.4547 183.641L69.8314 176.377L70.6386 168.306L73.0599 155.998L77.4992 142.68L82.7454 130.573L77.2972 118.668L76.8937 112.615L74.8759 105.351L66.1993 95.0601L62.5674 88.6032L66.1993 86.1818L69.0243 75.0839L63.1726 66.4074L54.8997 56.9237L47.8374 45.624L52.2767 43.2027L55.3034 29.2799L63.1726 28.6746L68.8225 23.0247L74.8759 19.998L80.3239 24.0336L82.14 31.903L89.8077 32.5084L89.0005 46.0276L91.0183 57.7308L101.713 50.0632L105.546 52.2828L112.003 51.8792L113.618 47.44L122.294 48.2472L132.383 58.7397L135.006 71.6536L145.701 82.9533L146.508 93.8494L143.481 99.7011Z" fill="#ECECEC" stroke="black" stroke-width="0.289173" stroke-linecap="round" stroke-linejoin="round"/>
<path d="M375.931 406.204L376.133 402.371L375.124 399.747L376.738 396.721L386.626 393.896L394.697 393.29L398.329 391.676L402.566 393.29L398.127 396.922L385.818 402.572L375.931 406.204Z" fill="#ECECEC" stroke="black" stroke-width="0.289173" stroke-linecap="round" stroke-linejoin="round"/>
<path d="M305.712 -10.6726L302.887 0.0216789L294.816 -11.0762L291.789 -20.5598L295.623 -33.272L302.281 -43.1592L308.335 -39.3254L308.133 -31.4559L305.712 -10.6726Z" fill="#ECECEC" stroke="black" stroke-width="0.289173" stroke-linecap="round" stroke-linejoin="round"/>
<path d="M161.641 5.46946L148.525 16.3656L141.059 28.6741L139.848 37.7542L150.543 51.2735L163.659 68.223L175.16 76.2942L183.433 86.585L191.504 110.597L192.311 133.398L183.635 141.873L171.326 150.347L162.851 161.042L149.534 173.148L144.893 164.875L147.314 155.997L138.436 148.733L147.718 143.487L159.623 142.478L153.973 134.81L172.133 124.721L171.931 109.184L168.3 100.508L168.703 87.5939L164.667 78.5138L154.78 69.4337L145.902 58.134L134.4 42.7987L119.67 34.9293L122.092 30.2883L128.751 26.8581L122.697 15.5584H108.976L101.914 3.85524L93.8428 -6.43554L99.2907 -9.66403L108.169 -9.46224L118.864 -11.0765L127.136 -17.937L133.392 -13.0943L144.086 -10.6729L143.481 -3.20705L149.736 2.03918L161.641 5.46946Z" fill="#ECECEC" stroke="black" stroke-width="0.289173" stroke-linecap="round" stroke-linejoin="round"/>
<path d="M77.1806 107.11V109.274H58.9377V107.11H77.1806ZM59.5355 93.6491V123.662H57V93.6491H59.5355ZM79.2214 93.6491V123.662H76.6859V93.6491H79.2214ZM84.952 112.861V112.181C84.952 110.559 85.1855 109.061 85.6528 107.687C86.1199 106.313 86.7864 105.124 87.6523 104.121C88.5317 103.118 89.5831 102.341 90.806 101.791C92.0292 101.228 93.3896 100.946 94.8876 100.946C96.3992 100.946 97.7665 101.228 98.9897 101.791C100.213 102.341 101.264 103.118 102.143 104.121C103.023 105.124 103.696 106.313 104.164 107.687C104.631 109.061 104.864 110.559 104.864 112.181V112.861C104.864 114.482 104.631 115.98 104.164 117.355C103.696 118.715 103.023 119.897 102.143 120.9C101.278 121.903 100.233 122.687 99.0102 123.25C97.7872 123.8 96.4268 124.075 94.9288 124.075C93.4172 124.075 92.0499 123.8 90.8267 123.25C89.6037 122.687 88.5523 121.903 87.6728 120.9C86.7934 119.897 86.1199 118.715 85.6528 117.355C85.1855 115.98 84.952 114.482 84.952 112.861ZM87.4048 112.181V112.861C87.4048 114.084 87.5697 115.245 87.8996 116.345C88.2294 117.43 88.7104 118.399 89.3426 119.251C89.9747 120.089 90.758 120.749 91.6924 121.23C92.627 121.711 93.7058 121.951 94.9288 121.951C96.138 121.951 97.2031 121.711 98.1238 121.23C99.0584 120.749 99.8417 120.089 100.474 119.251C101.106 118.399 101.58 117.43 101.896 116.345C102.226 115.245 102.391 114.084 102.391 112.861V112.181C102.391 110.971 102.226 109.824 101.896 108.738C101.58 107.652 101.099 106.684 100.453 105.832C99.821 104.98 99.0378 104.306 98.1034 103.812C97.1687 103.317 96.0969 103.069 94.8876 103.069C93.6782 103.069 92.6063 103.317 91.6719 103.812C90.751 104.306 89.9678 104.98 89.3219 105.832C88.6898 106.684 88.2088 107.652 87.8789 108.738C87.5629 109.824 87.4048 110.971 87.4048 112.181ZM139.557 114.304H142.092C141.886 116.324 141.33 118.069 140.423 119.54C139.516 120.996 138.279 122.116 136.712 122.9C135.146 123.683 133.256 124.075 131.044 124.075C129.34 124.075 127.793 123.752 126.406 123.106C125.031 122.46 123.849 121.546 122.86 120.364C121.871 119.169 121.108 117.739 120.572 116.077C120.036 114.414 119.768 112.565 119.768 110.532V106.78C119.768 104.746 120.036 102.905 120.572 101.255C121.108 99.5926 121.877 98.1634 122.881 96.9678C123.884 95.7723 125.086 94.8515 126.488 94.2057C127.89 93.5598 129.47 93.2368 131.229 93.2368C133.359 93.2368 135.201 93.6285 136.753 94.4118C138.306 95.1814 139.529 96.2945 140.423 97.7512C141.33 99.2079 141.886 100.967 142.092 103.028H139.557C139.365 101.407 138.939 100.032 138.279 98.9055C137.619 97.7786 136.705 96.9197 135.537 96.3288C134.383 95.7242 132.947 95.4218 131.229 95.4218C129.827 95.4218 128.577 95.6898 127.477 96.2258C126.378 96.7617 125.444 97.5313 124.674 98.5345C123.904 99.5239 123.313 100.713 122.901 102.101C122.503 103.489 122.303 105.035 122.303 106.739V110.532C122.303 112.181 122.496 113.699 122.881 115.087C123.265 116.475 123.829 117.678 124.571 118.694C125.327 119.711 126.248 120.502 127.333 121.065C128.419 121.628 129.656 121.91 131.044 121.91C132.816 121.91 134.294 121.628 135.475 121.065C136.671 120.488 137.599 119.636 138.258 118.509C138.918 117.382 139.351 115.98 139.557 114.304ZM150.152 92V123.662H147.699V92H150.152ZM149.596 111.129L148.503 110.511C148.586 109.192 148.854 107.955 149.307 106.8C149.761 105.646 150.372 104.629 151.142 103.75C151.925 102.87 152.839 102.183 153.883 101.688C154.941 101.194 156.11 100.946 157.388 100.946C158.501 100.946 159.497 101.097 160.377 101.4C161.256 101.702 162.005 102.183 162.623 102.843C163.242 103.502 163.709 104.347 164.025 105.378C164.355 106.409 164.52 107.666 164.52 109.15V123.662H162.046V109.13C162.046 107.591 161.833 106.388 161.407 105.522C160.981 104.643 160.377 104.018 159.593 103.647C158.81 103.276 157.882 103.09 156.81 103.09C155.629 103.09 154.591 103.351 153.698 103.873C152.818 104.382 152.076 105.048 151.472 105.873C150.881 106.684 150.427 107.556 150.111 108.491C149.795 109.411 149.623 110.291 149.596 111.129ZM173.61 101.359V123.662H171.157V101.359H173.61ZM170.724 94.9065C170.724 94.4393 170.869 94.0476 171.157 93.7315C171.46 93.4017 171.872 93.2368 172.394 93.2368C172.916 93.2368 173.329 93.4017 173.631 93.7315C173.947 94.0476 174.105 94.4393 174.105 94.9065C174.105 95.36 173.947 95.7517 173.631 96.0815C173.329 96.3975 172.916 96.5556 172.394 96.5556C171.872 96.5556 171.46 96.3975 171.157 96.0815C170.869 95.7517 170.724 95.36 170.724 94.9065ZM192.018 93.6491H194.574L205.664 120.076L216.775 93.6491H219.31L206.633 123.662H204.696L192.018 93.6491ZM191.235 93.6491H193.482L193.75 110.552V123.662H191.235V93.6491ZM217.888 93.6491H220.135V123.662H217.6V110.552L217.888 93.6491ZM229.926 101.359V123.662H227.473V101.359H229.926ZM227.04 94.9065C227.04 94.4393 227.185 94.0476 227.473 93.7315C227.776 93.4017 228.188 93.2368 228.71 93.2368C229.232 93.2368 229.645 93.4017 229.947 93.7315C230.263 94.0476 230.421 94.4393 230.421 94.9065C230.421 95.36 230.263 95.7517 229.947 96.0815C229.645 96.3975 229.232 96.5556 228.71 96.5556C228.188 96.5556 227.776 96.3975 227.473 96.0815C227.185 95.7517 227.04 95.36 227.04 94.9065ZM239.12 106.12V123.662H236.667V101.359H239.017L239.12 106.12ZM238.563 111.129L237.471 110.511C237.553 109.192 237.821 107.955 238.275 106.8C238.728 105.646 239.34 104.629 240.109 103.75C240.893 102.87 241.807 102.183 242.851 101.688C243.909 101.194 245.077 100.946 246.355 100.946C247.468 100.946 248.465 101.097 249.344 101.4C250.224 101.702 250.973 102.183 251.591 102.843C252.21 103.502 252.677 104.347 252.993 105.378C253.322 106.409 253.487 107.666 253.487 109.15V123.662H251.014V109.13C251.014 107.591 250.801 106.388 250.375 105.522C249.949 104.643 249.344 104.018 248.561 103.647C247.778 103.276 246.85 103.09 245.778 103.09C244.596 103.09 243.559 103.351 242.665 103.873C241.786 104.382 241.044 105.048 240.439 105.873C239.848 106.684 239.395 107.556 239.079 108.491C238.763 109.411 238.591 110.291 238.563 111.129ZM262.331 92V123.662H259.878V92H262.331ZM261.775 111.129L260.682 110.511C260.764 109.192 261.032 107.955 261.485 106.8C261.939 105.646 262.551 104.629 263.32 103.75C264.104 102.87 265.018 102.183 266.062 101.688C267.121 101.194 268.289 100.946 269.566 100.946C270.68 100.946 271.675 101.097 272.555 101.4C273.434 101.702 274.183 102.183 274.803 102.843C275.42 103.502 275.887 104.347 276.203 105.378C276.532 106.409 276.699 107.666 276.699 109.15V123.662H274.225V109.13C274.225 107.591 274.012 106.388 273.585 105.522C273.16 104.643 272.555 104.018 271.772 103.647C270.988 103.276 270.06 103.09 268.99 103.09C267.808 103.09 266.769 103.351 265.876 103.873C264.996 104.382 264.255 105.048 263.649 105.873C263.06 106.684 262.605 107.556 262.289 108.491C261.973 109.411 261.802 110.291 261.775 111.129Z" fill="black"/>
<path d="M174 134.36H159V149.36H174V134.36Z" fill="#E21313"/>
</g>
<defs>
<clipPath id="clip0_9_1827">
<rect width="480" height="404" fill="white"/>
</clipPath>
</defs>
</svg>
