<svg width="114" height="40" viewBox="0 0 114 40" fill="none" xmlns="http://www.w3.org/2000/svg">
<path d="M10.6597 18.9102V20H2.82321V18.9102H10.6597ZM3.19688 4.8875V20H1.9202V4.8875H3.19688ZM12.1544 14.5612V14.2186C12.1544 13.4021 12.272 12.6479 12.5073 11.9559C12.7425 11.264 13.0781 10.6654 13.5141 10.1603C13.9569 9.65513 14.4863 9.26417 15.1021 8.98739C15.718 8.70368 16.403 8.56183 17.1573 8.56183C17.9184 8.56183 18.6069 8.70368 19.2228 8.98739C19.8386 9.26417 20.368 9.65513 20.8108 10.1603C21.2537 10.6654 21.5927 11.264 21.828 11.9559C22.0633 12.6479 22.1809 13.4021 22.1809 14.2186V14.5612C22.1809 15.3777 22.0633 16.1319 21.828 16.8239C21.5927 17.5089 21.2537 18.104 20.8108 18.6092C20.3749 19.1143 19.849 19.5087 19.2331 19.7924C18.6173 20.0692 17.9323 20.2076 17.178 20.2076C16.4169 20.2076 15.7283 20.0692 15.1125 19.7924C14.4967 19.5087 13.9673 19.1143 13.5244 18.6092C13.0816 18.104 12.7425 17.5089 12.5073 16.8239C12.272 16.1319 12.1544 15.3777 12.1544 14.5612ZM13.3895 14.2186V14.5612C13.3895 15.177 13.4725 15.7617 13.6386 16.3153C13.8047 16.8619 14.0469 17.3498 14.3652 17.7788C14.6835 18.2009 15.0779 18.533 15.5484 18.7752C16.019 19.0174 16.5622 19.1385 17.178 19.1385C17.7869 19.1385 18.3232 19.0174 18.7868 18.7752C19.2574 18.533 19.6518 18.2009 19.9701 17.7788C20.2884 17.3498 20.5271 16.8619 20.6863 16.3153C20.8523 15.7617 20.9354 15.177 20.9354 14.5612V14.2186C20.9354 13.6097 20.8523 13.0319 20.6863 12.4853C20.5271 11.9386 20.2849 11.4508 19.9597 11.0218C19.6414 10.5927 19.247 10.2537 18.7765 10.0046C18.3059 9.75547 17.7662 9.63092 17.1573 9.63092C16.5483 9.63092 16.0086 9.75547 15.5381 10.0046C15.0744 10.2537 14.68 10.5927 14.3548 11.0218C14.0365 11.4508 13.7943 11.9386 13.6282 12.4853C13.4691 13.0319 13.3895 13.6097 13.3895 14.2186ZM31.4809 17.1353C31.4809 16.8308 31.4048 16.5298 31.2526 16.2323C31.1003 15.9347 30.8062 15.6614 30.3703 15.4123C29.9413 15.1632 29.3081 14.9521 28.4709 14.7791C27.8481 14.6407 27.2911 14.485 26.7998 14.3121C26.3154 14.1391 25.9071 13.9315 25.575 13.6893C25.2429 13.4471 24.9903 13.1565 24.8173 12.8174C24.6443 12.4783 24.5578 12.077 24.5578 11.6134C24.5578 11.1982 24.6478 10.8073 24.8277 10.4405C25.0145 10.0669 25.2775 9.74163 25.6165 9.46484C25.9625 9.18114 26.3777 8.95971 26.8621 8.80056C27.3533 8.64141 27.9035 8.56183 28.5124 8.56183C29.3773 8.56183 30.1177 8.7106 30.7336 9.00815C31.3564 9.29877 31.8304 9.69665 32.1556 10.2018C32.4877 10.7069 32.6538 11.2778 32.6538 11.9144H31.4186C31.4186 11.5269 31.3045 11.1602 31.0761 10.8142C30.8547 10.4682 30.526 10.1845 30.0901 9.96306C29.661 9.74163 29.1352 9.63092 28.5124 9.63092C27.8689 9.63092 27.3464 9.72779 26.9451 9.92154C26.5437 10.1153 26.2497 10.3609 26.0628 10.6585C25.8829 10.956 25.793 11.264 25.793 11.5823C25.793 11.8314 25.831 12.0597 25.9071 12.2673C25.9902 12.468 26.1355 12.6548 26.3431 12.8278C26.5576 13.0008 26.8621 13.1634 27.2565 13.3156C27.6509 13.4679 28.1629 13.6166 28.7926 13.7619C29.6991 13.9626 30.4395 14.2083 31.0138 14.4989C31.5951 14.7826 32.0241 15.1355 32.3009 15.5576C32.5777 15.9728 32.7161 16.4779 32.7161 17.073C32.7161 17.5366 32.6192 17.9622 32.4254 18.3497C32.2317 18.7302 31.9515 19.0589 31.5847 19.3357C31.2249 19.6125 30.789 19.827 30.2769 19.9792C29.7718 20.1315 29.2044 20.2076 28.5747 20.2076C27.6267 20.2076 26.824 20.0519 26.1666 19.7405C25.5162 19.4222 25.0214 19.007 24.6824 18.495C24.3502 17.976 24.1842 17.4259 24.1842 16.8446H25.4193C25.4608 17.4259 25.6442 17.886 25.9694 18.2251C26.2946 18.5573 26.6925 18.7925 27.1631 18.9309C27.6405 19.0693 28.111 19.1385 28.5747 19.1385C29.2113 19.1385 29.7441 19.0451 30.1731 18.8583C30.6021 18.6714 30.9273 18.4258 31.1488 18.1213C31.3702 17.8169 31.4809 17.4882 31.4809 17.1353ZM45.9706 5.79051L40.7394 20H39.4108L45.1195 4.8875H46.0433L45.9706 5.79051ZM50.7244 20L45.4828 5.79051L45.4102 4.8875H46.3339L52.053 20H50.7244ZM49.7903 14.665V15.7652H41.767V14.665H49.7903ZM55.2395 11.1671V20H54.0044V8.76942H55.1876L55.2395 11.1671ZM54.9593 13.6893L54.4091 13.3779C54.4507 12.7136 54.5856 12.0908 54.8139 11.5096C55.0423 10.9283 55.3502 10.4163 55.7377 9.97344C56.1321 9.53058 56.5923 9.1846 57.1182 8.93549C57.651 8.68638 58.2392 8.56183 58.8827 8.56183C59.4432 8.56183 59.9449 8.63795 60.3877 8.79018C60.8306 8.94241 61.2077 9.1846 61.5191 9.51674C61.8305 9.84888 62.0657 10.2744 62.2249 10.7934C62.391 11.3124 62.474 11.9455 62.474 12.6929V20H61.2285V12.6825C61.2285 11.9075 61.1212 11.302 60.9067 10.8661C60.6922 10.4232 60.3877 10.1084 59.9933 9.92154C59.5989 9.73471 59.1318 9.64129 58.5921 9.64129C57.997 9.64129 57.4746 9.77277 57.0248 10.0357C56.5819 10.2917 56.2083 10.6273 55.9038 11.0425C55.6062 11.4508 55.3779 11.8902 55.2187 12.3607C55.0596 12.8243 54.9731 13.2672 54.9593 13.6893ZM73.0818 8.76942H74.2339V19.8028C74.2339 20.7785 74.0471 21.6157 73.6734 22.3146C73.3067 23.0135 72.7843 23.5498 72.1061 23.9234C71.4349 24.2971 70.6426 24.4839 69.7292 24.4839C69.2656 24.4839 68.7882 24.4113 68.2969 24.266C67.8125 24.1276 67.3523 23.9131 66.9164 23.6224C66.4874 23.3387 66.1206 22.9858 65.8162 22.5637L66.5116 21.806C66.9683 22.3596 67.4561 22.7644 67.9751 23.0204C68.4941 23.2834 69.0546 23.4148 69.6566 23.4148C70.3693 23.4148 70.9713 23.273 71.4626 22.9893C71.9608 22.7056 72.3379 22.2973 72.594 21.7645C72.8569 21.2317 72.9884 20.5916 72.9884 19.8443V11.2397L73.0818 8.76942ZM65.1934 14.4989V14.2809C65.1934 13.409 65.2903 12.6237 65.484 11.9248C65.6847 11.219 65.9719 10.617 66.3455 10.1187C66.7192 9.61362 67.1724 9.22958 67.7052 8.96663C68.245 8.69676 68.8539 8.56183 69.532 8.56183C70.1825 8.56183 70.7603 8.66908 71.2654 8.88359C71.7705 9.0981 72.2065 9.40603 72.5732 9.80737C72.94 10.2087 73.234 10.6862 73.4555 11.2397C73.6838 11.7933 73.8499 12.4092 73.9537 13.0873V15.8586C73.8706 16.4952 73.7184 17.0799 73.497 17.6127C73.2756 18.1386 72.9815 18.5988 72.6147 18.9932C72.248 19.3807 71.8051 19.6817 71.2862 19.8962C70.7741 20.1038 70.1825 20.2076 69.5113 20.2076C68.8401 20.2076 68.2381 20.0692 67.7052 19.7924C67.1724 19.5156 66.7192 19.1247 66.3455 18.6195C65.9719 18.1075 65.6847 17.502 65.484 16.8031C65.2903 16.1042 65.1934 15.3362 65.1934 14.4989ZM66.4389 14.2809V14.4989C66.4389 15.1562 66.5047 15.7652 66.6362 16.3257C66.7676 16.8862 66.9683 17.374 67.2382 17.7892C67.508 18.2044 67.8506 18.5296 68.2657 18.7648C68.6809 19.0001 69.1687 19.1177 69.7292 19.1177C70.442 19.1177 71.0405 18.9828 71.5249 18.7129C72.0093 18.4362 72.3933 18.0729 72.677 17.6231C72.9607 17.1664 73.1683 16.6682 73.2998 16.1285V12.9004C73.2237 12.5337 73.106 12.16 72.9469 11.7795C72.7946 11.3989 72.5801 11.0494 72.3033 10.7311C72.0335 10.4059 71.6875 10.1464 71.2654 9.95268C70.8502 9.75201 70.3451 9.65167 69.75 9.65167C69.1826 9.65167 68.6878 9.76931 68.2657 10.0046C67.8506 10.2398 67.508 10.5685 67.2382 10.9906C66.9683 11.4058 66.7676 11.8936 66.6362 12.4541C66.5047 13.0146 66.4389 13.6235 66.4389 14.2809ZM81.8213 20.2076C81.0878 20.2076 80.4132 20.0727 79.7973 19.8028C79.1884 19.5329 78.6556 19.1523 78.1989 18.661C77.7491 18.1698 77.3997 17.5885 77.1506 16.9173C76.9084 16.2392 76.7873 15.4988 76.7873 14.6961V14.2498C76.7873 13.3848 76.9153 12.6029 77.1713 11.904C77.4273 11.2051 77.7802 10.6066 78.23 10.1084C78.6798 9.61016 79.1919 9.22958 79.7662 8.96663C80.3474 8.69676 80.9564 8.56183 81.593 8.56183C82.3057 8.56183 82.9388 8.68984 83.4924 8.94587C84.046 9.19498 84.5096 9.55134 84.8833 10.015C85.2638 10.4717 85.551 11.0148 85.7448 11.6445C85.9385 12.2673 86.0354 12.9558 86.0354 13.71V14.4677H77.5346V13.409H84.8002V13.2637C84.7864 12.634 84.6584 12.0459 84.4162 11.4992C84.1809 10.9456 83.828 10.4959 83.3575 10.1499C82.8869 9.80391 82.2988 9.63092 81.593 9.63092C81.0671 9.63092 80.5827 9.74163 80.1398 9.96306C79.7039 10.1845 79.3268 10.5028 79.0085 10.918C78.6971 11.3262 78.4549 11.8141 78.2819 12.3815C78.1158 12.942 78.0328 13.5647 78.0328 14.2498V14.6961C78.0328 15.3189 78.1228 15.9001 78.3027 16.4398C78.4895 16.9727 78.7525 17.4432 79.0915 17.8515C79.4375 18.2597 79.8458 18.578 80.3163 18.8064C80.7868 19.0347 81.3058 19.1489 81.8732 19.1489C82.5375 19.1489 83.1257 19.0278 83.6377 18.7856C84.1498 18.5365 84.6099 18.1455 85.0182 17.6127L85.7967 18.2147C85.5545 18.5746 85.25 18.9067 84.8833 19.2112C84.5234 19.5156 84.091 19.7578 83.5858 19.9377C83.0807 20.1176 82.4925 20.2076 81.8213 20.2076ZM89.8654 4.05714V20H88.6302V4.05714H89.8654ZM97.5981 20.2076C96.8646 20.2076 96.19 20.0727 95.5741 19.8028C94.9652 19.5329 94.4324 19.1523 93.9757 18.661C93.5259 18.1698 93.1765 17.5885 92.9273 16.9173C92.6852 16.2392 92.5641 15.4988 92.5641 14.6961V14.2498C92.5641 13.3848 92.6921 12.6029 92.9481 11.904C93.2041 11.2051 93.557 10.6066 94.0068 10.1084C94.4566 9.61016 94.9686 9.22958 95.543 8.96663C96.1242 8.69676 96.7331 8.56183 97.3698 8.56183C98.0825 8.56183 98.7156 8.68984 99.2692 8.94587C99.8228 9.19498 100.286 9.55134 100.66 10.015C101.041 10.4717 101.328 11.0148 101.522 11.6445C101.715 12.2673 101.812 12.9558 101.812 13.71V14.4677H93.3114V13.409H100.577V13.2637C100.563 12.634 100.435 12.0459 100.193 11.4992C99.9577 10.9456 99.6048 10.4959 99.1343 10.1499C98.6637 9.80391 98.0756 9.63092 97.3698 9.63092C96.8439 9.63092 96.3595 9.74163 95.9166 9.96306C95.4807 10.1845 95.1036 10.5028 94.7853 10.918C94.4739 11.3262 94.2317 11.8141 94.0587 12.3815C93.8926 12.942 93.8096 13.5647 93.8096 14.2498V14.6961C93.8096 15.3189 93.8996 15.9001 94.0795 16.4398C94.2663 16.9727 94.5292 17.4432 94.8683 17.8515C95.2143 18.2597 95.6225 18.578 96.0931 18.8064C96.5636 19.0347 97.0826 19.1489 97.65 19.1489C98.3143 19.1489 98.9025 19.0278 99.4145 18.7856C99.9266 18.5365 100.387 18.1455 100.795 17.6127L101.573 18.2147C101.331 18.5746 101.027 18.9067 100.66 19.2112C100.3 19.5156 99.8677 19.7578 99.3626 19.9377C98.8575 20.1176 98.2693 20.2076 97.5981 20.2076ZM110.988 17.1353C110.988 16.8308 110.911 16.5298 110.759 16.2323C110.607 15.9347 110.313 15.6614 109.877 15.4123C109.448 15.1632 108.815 14.9521 107.978 14.7791C107.355 14.6407 106.798 14.485 106.306 14.3121C105.822 14.1391 105.414 13.9315 105.082 13.6893C104.75 13.4471 104.497 13.1565 104.324 12.8174C104.151 12.4783 104.065 12.077 104.065 11.6134C104.065 11.1982 104.154 10.8073 104.334 10.4405C104.521 10.0669 104.784 9.74163 105.123 9.46484C105.469 9.18114 105.884 8.95971 106.369 8.80056C106.86 8.64141 107.41 8.56183 108.019 8.56183C108.884 8.56183 109.624 8.7106 110.24 9.00815C110.863 9.29877 111.337 9.69665 111.662 10.2018C111.994 10.7069 112.16 11.2778 112.16 11.9144H110.925C110.925 11.5269 110.811 11.1602 110.583 10.8142C110.361 10.4682 110.033 10.1845 109.597 9.96306C109.168 9.74163 108.642 9.63092 108.019 9.63092C107.376 9.63092 106.853 9.72779 106.452 9.92154C106.05 10.1153 105.756 10.3609 105.57 10.6585C105.39 10.956 105.3 11.264 105.3 11.5823C105.3 11.8314 105.338 12.0597 105.414 12.2673C105.497 12.468 105.642 12.6548 105.85 12.8278C106.064 13.0008 106.369 13.1634 106.763 13.3156C107.158 13.4679 107.67 13.6166 108.299 13.7619C109.206 13.9626 109.946 14.2083 110.521 14.4989C111.102 14.7826 111.531 15.1355 111.808 15.5576C112.084 15.9728 112.223 16.4779 112.223 17.073C112.223 17.5366 112.126 17.9622 111.932 18.3497C111.738 18.7302 111.458 19.0589 111.091 19.3357C110.732 19.6125 110.296 19.827 109.784 19.9792C109.278 20.1315 108.711 20.2076 108.081 20.2076C107.133 20.2076 106.331 20.0519 105.673 19.7405C105.023 19.4222 104.528 19.007 104.189 18.495C103.857 17.976 103.691 17.4259 103.691 16.8446H104.926C104.968 17.4259 105.151 17.886 105.476 18.2251C105.801 18.5573 106.199 18.7925 106.67 18.9309C107.147 19.0693 107.618 19.1385 108.081 19.1385C108.718 19.1385 109.251 19.0451 109.68 18.8583C110.109 18.6714 110.434 18.4258 110.655 18.1213C110.877 17.8169 110.988 17.4882 110.988 17.1353Z" fill="black"/>
<rect x="52" y="30" width="10" height="10" fill="#E21313"/>
</svg>
