<svg width="480" height="404" viewBox="0 0 480 404" fill="none" xmlns="http://www.w3.org/2000/svg">
<g clip-path="url(#clip0_9_2284)">
<rect width="480" height="404" fill="white"/>
<path d="M177.833 22.0048L171.577 23.8208L158.865 18.1709V13.7318L153.014 9.29265L153.619 5.66061L144.943 3.44105L146.153 -3.41948L149.18 -6.24438L157.453 -3.62124L162.296 -1.60344L170.568 -0.392784L170.972 4.04636L171.779 9.898L178.236 15.1443L177.833 22.0048Z" fill="#ECECEC" stroke="black" stroke-width="0.289173" stroke-linecap="round" stroke-linejoin="round"/>
<path d="M728.893 64.7821L724.454 57.518L730.306 40.3667L727.077 36.7347L719.612 38.7525L717.392 35.524L706.294 45.0076L699.837 54.8949L694.187 60.7465L689.143 62.7643L685.712 63.3696L683.493 66.3963H664.728L648.989 66.5981L643.541 68.8177L629.82 77.696V77.4942L628.004 76.6871L623.968 78.5031L620.134 81.1263L616.502 78.9066L607.018 80.5209L599.149 82.3369L595.315 83.9511L590.674 88.1885L594.306 89.601L597.737 88.7939H598.342L597.737 92.6277L588.051 94.0401L582.401 95.6544L578.971 97.6721L573.725 96.4615L570.496 97.0668L564.645 100.699L555.363 104.734L549.915 103.927L553.95 99.4882L561.416 92.4259L569.689 88.1885L571.909 84.5565L573.725 78.5031L581.392 71.4408L583.208 63.3696L585.428 71.239L593.096 73.0551L597.938 68.8177L595.113 59.1322L593.297 55.0966L585.226 52.6753L577.559 51.2628H569.689L562.829 49.6486L562.022 46.8237L559.197 48.6397L556.775 48.2361L560.609 43.9987L556.977 42.3845L560.811 37.5418L558.39 33.9097L561.82 30.2777L551.327 28.4617L551.125 21.1976L549.511 19.5834L542.852 19.1798L534.58 16.7585L531.553 18.3727L527.921 21.3994L521.262 23.4172L515.007 28.4617L504.111 25.0314L495.232 26.6457L487.363 22.8118L478.081 20.794L471.422 19.9869L469.405 17.9691L471.221 11.1086H467.79L465.167 15.9513H444.586H410.283H376.384H346.319H316.456H286.794H256.325H246.64H216.978H188.527H187.115L176.219 3.64276L172.99 -1.80528L158.866 -7.05156L161.489 -18.1495L168.753 -25.6153L160.48 -31.0634L166.735 -40.9505L162.498 -49.8289L167.542 -56.2858L177.833 -62.1374L184.29 -69.8051L175.008 -77.4727L177.833 -91.3955L180.052 -99.8703L176.824 -105.318L175.21 -110.161L176.42 -116.416L163.305 -112.582L147.969 -105.924L147.364 -113.591L146.355 -118.838L140.705 -122.066L132.231 -122.47L204.064 -188.452L253.702 -229.615L265.809 -226.992L272.468 -221.745L279.933 -220.736L292.645 -225.176L306.77 -228.606L317.464 -227.395L335.423 -232.036L351.969 -234.659L352.372 -230.22L361.452 -232.843L369.322 -237.888L373.559 -236.677L376.384 -226.992L395.553 -234.457L387.684 -226.184L399.791 -228L406.248 -231.027L415.529 -230.422L423.399 -225.983L438.532 -221.947L448.016 -220.131L456.894 -220.736L462.746 -215.087L445.595 -209.638L458.509 -207.419L482.52 -208.63L491.399 -210.647L494.224 -203.989L508.55 -209.437L504.313 -214.279L513.393 -217.911L523.885 -218.517L531.755 -219.526L535.992 -216.903L539.019 -211.051L549.108 -211.858L559.802 -206.814L574.33 -208.63L586.437 -208.428L591.28 -215.288L600.36 -217.104L610.247 -213.472L601.57 -202.98L614.081 -211.858L620.538 -211.454L633.452 -222.552L630.223 -229.211L624.372 -233.65L635.469 -245.555L652.015 -253.223L661.095 -251.407L665.131 -246.766L665.938 -234.659L654.235 -229.413L667.754 -227.193L658.876 -216.095L676.834 -224.57L681.273 -217.508L672.597 -209.437L675.22 -201.971L689.95 -209.84L703.066 -219.526L712.549 -231.431L723.647 -230.624L734.543 -229.009L741.807 -223.561L738.377 -218.113L728.086 -212.262L729.902 -206.41L725.06 -200.962L703.066 -193.093L689.95 -191.277L683.493 -194.707L676.834 -189.057L661.902 -179.573L655.849 -174.529L640.312 -166.861L627.196 -166.054L616.906 -161.211L611.054 -153.544L599.553 -152.131L581.998 -142.648L563.03 -129.532L552.941 -120.25L543.054 -106.327L555.161 -104.309L552.134 -93.2115L550.52 -83.9297L565.25 -86.351L579.375 -81.1048L586.033 -76.4638L589.464 -70.814L599.351 -67.3837L606.615 -62.3392L621.95 -61.5321L631.636 -60.3214L624.372 -49.8289L620.941 -37.5203L621.143 -23.5975L630.021 -11.6925L639.505 -15.7281L650.805 -28.642L655.446 -48.0128L652.015 -54.4698L670.176 -60.3214L685.309 -68.7962L694.994 -77.2709L698.425 -85.3421L697.618 -95.6329L691.161 -104.713L709.119 -117.223L711.137 -127.918L719.006 -146.078L726.674 -148.903L740.193 -145.674L748.668 -144.464L757.748 -147.692L764.003 -143.656L771.267 -136.796L771.671 -132.357L787.208 -131.348L781.962 -121.461L777.321 -106.529L784.988 -104.511L788.217 -97.4489L804.763 -104.108L819.896 -117.425L828.371 -122.873L830.59 -112.179L835.837 -97.0453L839.872 -82.5172L833.012 -74.8496L842.697 -67.9891L848.549 -61.1285L862.472 -57.9001L867.314 -54.0662V-43.5737L874.175 -41.9594L876.394 -37.3185L872.359 -23.3957L863.682 -18.7548L855.208 -14.3156L837.451 -9.87646L821.51 0.212524L804.157 2.43211L783.778 -0.392822H769.048L758.353 0.414307L746.852 9.49442L731.92 15.1442L711.54 31.6902L695.6 43.3934L705.083 41.3756L727.077 24.6279L751.896 14.1353L767.232 12.9246L773.89 19.1798L761.582 27.6546L760.371 41.1738L760.573 50.8593L771.873 57.1144L789.226 55.2984L803.754 40.972L801.736 50.2539L806.78 54.8949L791.849 63.1678L766.828 70.8354L755.125 75.8799L740.597 85.1618L733.131 84.153L736.157 73.4586L757.143 62.7643L740.798 63.1678L728.893 64.7821Z" fill="#ECECEC" stroke="black" stroke-width="0.289173" stroke-linecap="round" stroke-linejoin="round"/>
<path d="M525.701 353.731L529.535 358.372L540.028 356.959L543.66 359.986L552.134 368.057L558.591 373.909L562.223 373.707L568.68 376.33L567.47 379.962L575.541 380.568L583.41 385.814L581.796 388.841L574.128 390.455L566.461 391.06L558.995 390.051L542.651 391.262L551.125 384.2L546.888 380.769L539.624 379.962L536.194 376.128L534.579 368.864L528.122 369.268L518.034 365.838L515.007 363.013L500.681 360.995L497.048 358.574L501.689 355.345L490.793 354.74L481.915 361.399L477.274 361.6L475.256 364.829L469.606 366.241L464.965 364.829L471.422 360.995L474.449 356.152L479.897 353.327L485.95 350.906L494.627 349.695L497.452 348.081L506.936 349.09L515.814 349.292L525.701 353.731Z" fill="#ECECEC" stroke="black" stroke-width="0.289173" stroke-linecap="round" stroke-linejoin="round"/>
<path d="M333.001 313.779L337.441 313.375L330.984 324.877L327.352 334.159L323.719 351.512L321.5 357.767L322.307 364.829L324.93 371.286L325.737 381.173L331.791 390.859L333.405 398.325L336.835 404.58L348.337 408.01L352.17 413.458L362.663 409.826L371.339 408.615L380.218 406.194L387.482 403.975L395.351 398.728L398.983 391.262L401.405 380.366L403.826 376.532L411.897 373.102L424.206 370.075L434.093 370.681L440.954 369.47L443.375 372.295L442.164 378.55L435.102 386.218L431.47 394.087L433.286 396.307L430.865 401.957L426.627 412.046L424.206 408.615L421.986 408.817L419.767 409.019L414.722 416.888L412.906 415.274L411.494 415.88L411.292 417.897L400.799 417.696H390.307L389.298 424.96L384.253 425.161L387.885 429.399L391.719 432.425L392.728 435.25L394.342 436.057L393.535 440.497H379.007L372.348 450.989L373.761 453.411L372.147 456.437L371.339 460.271L360.04 446.348L354.794 442.111L345.915 438.681L339.458 439.689L329.773 444.532L323.921 445.743L316.455 442.313L308.182 439.891L298.497 434.04L290.224 432.224L278.319 426.17L269.642 419.915L267.423 416.485L261.168 415.678L250.272 411.642L246.438 405.791L235.542 398.325L231.103 390.253L229.488 383.797L233.322 382.586L232.717 378.954L235.945 375.524L236.752 371.084L233.726 365.233V360.188L231.103 353.53L223.435 340.616L214.153 330.527L210.319 322.455L202.046 317.209L200.634 313.981L204.064 306.111L199.221 303.085L194.177 296.628L193.773 287.749L188.123 286.539L183.483 279.88L180.052 273.423L180.658 269.387L177.631 259.702L177.026 249.815L178.64 244.77L172.385 239.524L168.551 240.129L163.708 236.699L160.076 241.945L159.874 247.999L157.856 257.886L159.874 263.132L165.524 272.011L166.331 275.239L167.744 276.046L167.945 280.485L169.963 280.283V288.758L172.586 291.987L173.595 296.628L179.043 303.085L179.85 315.191L181.868 320.841L183.684 326.895L183.079 333.755L188.325 334.159L191.554 340.01L194.58 345.862L193.975 348.283L188.325 352.924H186.307L184.895 345.055L179.043 337.589L172.183 331.334L167.138 328.105L169.56 318.622L169.358 311.559L165.121 307.524L158.865 301.874L157.049 303.488L155.032 300.058L148.978 297.031L144.539 289.364L145.548 288.556L149.785 289.162L155.233 284.319L157.251 278.467L151.4 269.186L146.153 265.755L144.539 257.684L143.328 249.008L141.714 238.717L141.311 227.014L154.023 226.005L168.349 224.592L166.533 227.215L180.658 233.471L202.652 242.551H224.444H233.12L234.735 237.103H253.702L256.325 241.744L260.562 245.981L265.405 251.631L267.019 258.289L267.826 265.554L272.467 269.387L280.539 273.221L290.224 263.132L299.304 262.729L305.761 267.975L308.99 276.853L310.806 284.521L315.648 291.785L316.052 300.865L317.868 306.918L325.737 310.954L333.001 313.779Z" fill="#ECECEC" stroke="black" stroke-width="0.289173" stroke-linecap="round" stroke-linejoin="round"/>
<path d="M515.007 28.462L502.698 32.4976L493.215 37.542L483.933 42.9901L482.924 44.8061L494.425 42.183L498.663 46.4203L507.945 43.3937L517.832 39.1563L528.728 34.9189L522.473 41.5776L527.517 43.1919L532.562 48.0346L542.852 45.2097L553.143 44.2008L553.749 47.8328L556.775 48.2364L559.197 48.6399L562.223 53.6844L552.74 54.8951H552.538L545.072 53.4826L535.992 55.904L528.526 57.1147L519.042 65.3877L512.989 70.0286L513.796 71.4411L524.894 63.1681H526.306L516.823 73.0553L510.971 81.9336L505.927 89.1977L504.716 95.4528L503.102 98.4795L501.891 101.91L502.093 108.569L502.698 109.577L506.33 109.376L509.559 107.963L512.384 106.349L519.042 100.094L522.674 91.619L522.473 83.7496L525.298 78.3016L530.544 72.0464L534.781 67.6072L540.229 64.5805L539.422 68.8179L543.861 62.5627L546.484 61.3521L549.915 56.5093L557.582 59.1325L563.232 63.9752L561.618 69.8268L558.389 75.6784L550.722 80.7229L549.915 83.9514H551.932L560.609 78.5033L563.838 79.714L562.829 87.1799L561.416 92.4261L553.95 99.4884L549.915 103.928L544.467 108.77L549.915 111.393L554.959 112.201L563.03 110.385L570.496 106.954L576.55 105.138L585.831 101.506L597.535 93.8386L597.737 92.6279L598.342 88.7941L603.79 87.1799L611.659 87.7852L619.731 88.7941L629.012 84.5567L630.223 79.5122L629.82 77.6962L643.541 68.8179L648.989 66.5983L664.727 66.3966H683.493L685.712 63.3699L689.143 62.7645L694.187 60.7467L699.837 54.8951L706.294 45.0079L717.392 35.5243L719.612 38.7527L727.077 36.7349L730.306 40.367L724.454 57.5182L728.893 64.7823L729.297 69.0197L716.383 75.0731L704.276 79.5122L692.169 83.3461L684.098 91.0137L681.475 93.8386L679.054 100.699L680.466 107.358L684.704 107.761L685.107 103.12L687.327 105.945L685.309 109.577L677.641 111.595L672.597 111.393L664.122 113.613L659.481 114.218L653.226 114.824L643.137 118.658L659.481 116.236L661.701 118.658L645.76 122.491H639.101L639.909 120.877L635.671 124.509L638.496 125.114L633.452 134.396L622.757 144.284L622.959 140.853L620.739 140.248L618.318 137.019V144.082L620.336 146.301L619.125 151.144L614.283 156.189L605.202 166.479L604.395 166.076L610.247 157.197L606.211 152.355L608.229 141.459L604.395 147.108V155.381L597.938 153.364L603.992 157.399L600.965 169.708L603.79 170.717V175.156L601.772 188.07L592.49 197.553L580.182 201.387L571.303 209.055L565.654 209.862L558.793 214.705L556.17 218.942L542.247 227.417L534.579 233.672L527.517 241.34L523.683 250.42V259.5L524.894 270.598L527.921 279.678L526.912 285.328L529.535 300.259L527.517 309.138L526.306 314.182L522.271 322.052L518.639 323.666L513.393 322.052L512.585 316.402L508.953 313.375L504.918 302.277L501.689 292.39L500.882 287.345L504.918 278.669L503.304 271.607L497.048 260.71L493.215 258.693L480.906 264.746L479.09 263.939L475.054 257.886L469.001 254.657L456.087 256.473L446.805 254.859L438.129 255.868L433.084 257.886L434.295 261.316L432.882 266.562L434.497 269.185L432.075 270.799L428.443 268.983L423.802 271.405L415.933 271.001L409.274 264.141L399.387 265.755L392.123 262.728L385.061 263.737L374.972 266.764L362.663 276.247L350.355 281.897L342.889 287.951L339.055 293.802L337.037 302.882L336.23 308.936L337.441 313.375L333.001 313.779L325.737 310.954L317.868 306.918L316.052 300.865L315.648 291.785L310.806 284.52L308.99 276.853L305.761 267.975L299.304 262.728L290.224 263.132L280.539 273.221L272.468 269.387L267.827 265.553L267.02 258.289L265.405 251.63L260.563 245.981L256.325 241.743L253.702 237.102H234.735L233.12 242.55H224.444H202.652L180.658 233.47L166.533 227.215L168.349 224.592L154.023 226.004L141.311 227.013L141.916 220.556L137.679 213.09L133.239 211.476L133.441 207.844L127.59 207.037L125.168 203.607L115.483 202.396L113.667 200.177L115.281 193.114L110.237 180.2L109.228 162.242L111.044 159.215L108.421 154.978L105.394 144.082L109.026 133.589L107.21 126.527L115.079 115.833L120.729 104.936L122.949 95.0493L134.047 82.9425L142.118 71.4411L150.189 59.9396L158.866 42.7883L162.498 32.094L163.305 26.2424L166.13 23.6193L177.833 28.0584L175.815 39.9634L180.254 36.5331L185.299 26.2424L188.527 15.9516H216.978H246.64H256.325H286.794H316.456H346.319H376.384H410.283H444.586H465.167L467.79 11.1089H471.221L469.405 17.9694L471.422 19.9872L478.081 20.7943L487.363 22.8121L495.232 26.646L504.111 25.0317L515.007 28.462Z" fill="#ECECEC" stroke="black" stroke-width="0.289173" stroke-linecap="round" stroke-linejoin="round"/>
<path d="M51.8272 176.54V178.781H35.842V176.54H51.8272ZM36.6042 147.707V178.781H34V147.707H36.6042ZM54.8761 167.598V166.893C54.8761 165.214 55.116 163.664 55.596 162.241C56.0758 160.818 56.7603 159.587 57.6497 158.549C58.5529 157.51 59.6328 156.706 60.889 156.137C62.1453 155.554 63.5426 155.262 65.0812 155.262C66.6338 155.262 68.0382 155.554 69.2945 156.137C70.5507 156.706 71.6305 157.51 72.5338 158.549C73.4372 159.587 74.1287 160.818 74.6087 162.241C75.0887 163.664 75.3286 165.214 75.3286 166.893V167.598C75.3286 169.277 75.0887 170.827 74.6087 172.25C74.1287 173.659 73.4372 174.882 72.5338 175.921C71.6446 176.959 70.5719 177.77 69.3155 178.354C68.0594 178.923 66.6621 179.207 65.1235 179.207C63.5709 179.207 62.1663 178.923 60.9102 178.354C59.654 177.77 58.5741 176.959 57.6707 175.921C56.7675 174.882 56.0758 173.659 55.596 172.25C55.116 170.827 54.8761 169.277 54.8761 167.598ZM57.3955 166.893V167.598C57.3955 168.864 57.5648 170.066 57.9037 171.204C58.2425 172.328 58.7365 173.331 59.3858 174.213C60.0351 175.081 60.8396 175.764 61.7993 176.262C62.7593 176.76 63.8673 177.009 65.1235 177.009C66.3655 177.009 67.4595 176.76 68.4052 176.262C69.3651 175.764 70.1696 175.081 70.8189 174.213C71.4682 173.331 71.9551 172.328 72.2798 171.204C72.6184 170.066 72.788 168.864 72.788 167.598V166.893C72.788 165.641 72.6184 164.453 72.2798 163.329C71.9551 162.205 71.461 161.202 70.7977 160.32C70.1484 159.438 69.3439 158.741 68.3841 158.229C67.4242 157.716 66.3233 157.46 65.0812 157.46C63.839 157.46 62.7381 157.716 61.7783 158.229C60.8325 158.741 60.0279 159.438 59.3646 160.32C58.7153 161.202 58.2213 162.205 57.8824 163.329C57.5579 164.453 57.3955 165.641 57.3955 166.893ZM94.2991 172.89C94.2991 172.264 94.1438 171.645 93.8334 171.034C93.5227 170.422 92.9228 169.86 92.0336 169.348C91.1585 168.835 89.8669 168.401 88.1592 168.046C86.8887 167.761 85.7526 167.441 84.7504 167.085C83.7623 166.73 82.9294 166.303 82.252 165.805C81.5746 165.307 81.0593 164.709 80.7064 164.012C80.3535 163.315 80.1771 162.49 80.1771 161.537C80.1771 160.683 80.3606 159.879 80.7276 159.125C81.1087 158.357 81.6451 157.688 82.3366 157.119C83.0424 156.536 83.8894 156.08 84.8775 155.753C85.8794 155.426 87.0018 155.262 88.2438 155.262C90.0081 155.262 91.5184 155.568 92.7747 156.18C94.0451 156.777 95.012 157.596 95.6754 158.634C96.3528 159.673 96.6916 160.847 96.6916 162.156H94.172C94.172 161.359 93.9392 160.605 93.4733 159.893C93.0217 159.182 92.3512 158.599 91.4621 158.143C90.5868 157.688 89.5142 157.46 88.2438 157.46C86.9312 157.46 85.8654 157.66 85.0468 158.058C84.228 158.456 83.6283 158.961 83.247 159.573C82.8801 160.185 82.6967 160.818 82.6967 161.473C82.6967 161.985 82.7742 162.454 82.9294 162.881C83.0989 163.294 83.3953 163.678 83.8188 164.034C84.2563 164.389 84.8775 164.724 85.682 165.037C86.4865 165.35 87.5309 165.655 88.8154 165.954C90.6645 166.367 92.1748 166.872 93.3463 167.47C94.532 168.053 95.4071 168.779 95.9717 169.646C96.5364 170.5 96.8187 171.539 96.8187 172.762C96.8187 173.715 96.621 174.591 96.2257 175.387C95.8306 176.17 95.259 176.846 94.5108 177.415C93.7769 177.984 92.8877 178.425 91.8431 178.738C90.8128 179.051 89.6554 179.207 88.3709 179.207C86.4371 179.207 84.7997 178.887 83.4588 178.247C82.132 177.593 81.1227 176.739 80.4312 175.686C79.7536 174.619 79.415 173.488 79.415 172.293H81.9344C82.019 173.488 82.3931 174.434 83.0565 175.131C83.7199 175.814 84.5315 176.298 85.4915 176.582C86.4653 176.867 87.425 177.009 88.3709 177.009C89.6695 177.009 90.7563 176.817 91.6314 176.433C92.5065 176.049 93.1698 175.544 93.6216 174.918C94.0733 174.292 94.2991 173.616 94.2991 172.89ZM123.856 149.564L113.185 178.781H110.475L122.12 147.707H124.004L123.856 149.564ZM133.553 178.781L122.861 149.564L122.713 147.707H124.597L136.263 178.781H133.553ZM131.647 167.811V170.073H115.281V167.811H131.647ZM142.763 160.619V178.781H140.243V155.689H142.657L142.763 160.619ZM142.191 165.805L141.069 165.165C141.154 163.799 141.429 162.518 141.895 161.323C142.361 160.128 142.989 159.075 143.779 158.165C144.584 157.254 145.522 156.543 146.595 156.031C147.682 155.518 148.882 155.262 150.194 155.262C151.338 155.262 152.361 155.419 153.264 155.732C154.168 156.045 154.937 156.543 155.572 157.226C156.207 157.909 156.687 158.783 157.012 159.851C157.351 160.918 157.52 162.219 157.52 163.756V178.781H154.979V163.735C154.979 162.141 154.761 160.896 154.323 160C153.885 159.089 153.264 158.442 152.46 158.058C151.655 157.674 150.702 157.482 149.602 157.482C148.388 157.482 147.322 157.752 146.405 158.293C145.501 158.819 144.739 159.509 144.118 160.363C143.511 161.202 143.045 162.106 142.72 163.073C142.396 164.026 142.219 164.937 142.191 165.805ZM179.158 155.689H181.508V178.375C181.508 180.381 181.127 182.103 180.365 183.54C179.617 184.977 178.551 186.079 177.168 186.848C175.799 187.616 174.183 188 172.319 188C171.374 188 170.4 187.851 169.398 187.552C168.41 187.267 167.471 186.826 166.582 186.229C165.707 185.645 164.958 184.92 164.338 184.052L165.756 182.494C166.688 183.632 167.683 184.464 168.741 184.991C169.8 185.532 170.943 185.802 172.171 185.802C173.625 185.802 174.853 185.51 175.855 184.927C176.872 184.344 177.641 183.504 178.163 182.409C178.699 181.313 178.968 179.997 178.968 178.46V160.768L179.158 155.689ZM163.067 167.47V167.021C163.067 165.229 163.265 163.614 163.66 162.177C164.069 160.726 164.655 159.488 165.417 158.463C166.18 157.425 167.104 156.635 168.191 156.095C169.292 155.54 170.534 155.262 171.917 155.262C173.244 155.262 174.423 155.483 175.453 155.924C176.483 156.365 177.373 156.998 178.121 157.823C178.869 158.648 179.469 159.63 179.921 160.768C180.386 161.907 180.725 163.173 180.937 164.567V170.265C180.767 171.574 180.457 172.776 180.005 173.872C179.554 174.953 178.954 175.899 178.205 176.71C177.457 177.507 176.554 178.126 175.495 178.567C174.451 178.994 173.244 179.207 171.875 179.207C170.506 179.207 169.278 178.923 168.191 178.354C167.104 177.785 166.18 176.981 165.417 175.942C164.655 174.889 164.069 173.644 163.66 172.207C163.265 170.77 163.067 169.191 163.067 167.47ZM165.608 167.021V167.47C165.608 168.821 165.742 170.073 166.01 171.226C166.278 172.378 166.688 173.381 167.238 174.235C167.789 175.089 168.487 175.757 169.334 176.241C170.181 176.725 171.176 176.966 172.319 176.966C173.773 176.966 174.994 176.689 175.982 176.134C176.971 175.565 177.754 174.818 178.333 173.893C178.911 172.954 179.335 171.93 179.603 170.82V164.183C179.448 163.429 179.208 162.661 178.883 161.878C178.572 161.096 178.135 160.377 177.57 159.723C177.02 159.054 176.314 158.52 175.453 158.122C174.606 157.709 173.576 157.503 172.362 157.503C171.204 157.503 170.195 157.745 169.334 158.229C168.487 158.712 167.789 159.388 167.238 160.256C166.688 161.11 166.278 162.113 166.01 163.265C165.742 164.418 165.608 165.67 165.608 167.021ZM196.985 179.207C195.489 179.207 194.113 178.93 192.857 178.375C191.615 177.82 190.528 177.038 189.596 176.027C188.679 175.017 187.966 173.822 187.458 172.442C186.964 171.048 186.717 169.525 186.717 167.875V166.957C186.717 165.179 186.978 163.571 187.5 162.134C188.022 160.697 188.742 159.467 189.66 158.442C190.577 157.418 191.622 156.635 192.793 156.095C193.979 155.54 195.221 155.262 196.52 155.262C197.974 155.262 199.265 155.525 200.394 156.052C201.523 156.564 202.469 157.297 203.231 158.25C204.008 159.189 204.593 160.306 204.989 161.601C205.384 162.881 205.581 164.297 205.581 165.848V167.405H188.241V165.229H203.062V164.93C203.034 163.635 202.773 162.426 202.279 161.302C201.799 160.164 201.079 159.239 200.119 158.527C199.159 157.816 197.959 157.46 196.52 157.46C195.447 157.46 194.459 157.688 193.555 158.143C192.666 158.599 191.897 159.253 191.248 160.107C190.613 160.946 190.118 161.949 189.766 163.116C189.427 164.268 189.257 165.549 189.257 166.957V167.875C189.257 169.156 189.441 170.351 189.808 171.46C190.189 172.556 190.726 173.523 191.417 174.363C192.123 175.202 192.956 175.857 193.915 176.326C194.875 176.796 195.934 177.031 197.091 177.031C198.446 177.031 199.646 176.782 200.691 176.284C201.735 175.771 202.674 174.967 203.507 173.872L205.095 175.11C204.601 175.85 203.979 176.533 203.231 177.159C202.497 177.785 201.615 178.283 200.585 178.652C199.554 179.022 198.355 179.207 196.985 179.207ZM213.394 146V178.781H210.874V146H213.394ZM229.168 179.207C227.671 179.207 226.295 178.93 225.039 178.375C223.797 177.82 222.71 177.038 221.778 176.027C220.861 175.017 220.148 173.822 219.64 172.442C219.146 171.048 218.899 169.525 218.899 167.875V166.957C218.899 165.179 219.16 163.571 219.682 162.134C220.204 160.697 220.924 159.467 221.842 158.442C222.759 157.418 223.804 156.635 224.975 156.095C226.161 155.54 227.403 155.262 228.702 155.262C230.156 155.262 231.447 155.525 232.576 156.052C233.706 156.564 234.65 157.297 235.413 158.25C236.191 159.189 236.776 160.306 237.172 161.601C237.565 162.881 237.763 164.297 237.763 165.848V167.405H220.423V165.229H235.244V164.93C235.215 163.635 234.954 162.426 234.461 161.302C233.981 160.164 233.261 159.239 232.301 158.527C231.341 157.816 230.142 157.46 228.702 157.46C227.629 157.46 226.641 157.688 225.738 158.143C224.848 158.599 224.079 159.253 223.43 160.107C222.795 160.946 222.301 161.949 221.948 163.116C221.609 164.268 221.44 165.549 221.44 166.957V167.875C221.44 169.156 221.623 170.351 221.99 171.46C222.371 172.556 222.907 173.523 223.599 174.363C224.305 175.202 225.138 175.857 226.098 176.326C227.057 176.796 228.116 177.031 229.273 177.031C230.628 177.031 231.828 176.782 232.873 176.284C233.917 175.771 234.856 174.967 235.689 173.872L237.276 175.11C236.782 175.85 236.162 176.533 235.413 177.159C234.679 177.785 233.797 178.283 232.767 178.652C231.737 179.022 230.537 179.207 229.168 179.207ZM256.481 172.89C256.481 172.264 256.324 171.645 256.014 171.034C255.704 170.422 255.104 169.86 254.215 169.348C253.339 168.835 252.048 168.401 250.341 168.046C249.07 167.761 247.934 167.441 246.93 167.085C245.943 166.73 245.111 166.303 244.434 165.805C243.756 165.307 243.24 164.709 242.887 164.012C242.534 163.315 242.359 162.49 242.359 161.537C242.359 160.683 242.541 159.879 242.908 159.125C243.289 158.357 243.826 157.688 244.517 157.119C245.223 156.536 246.069 156.08 247.059 155.753C248.06 155.426 249.182 155.262 250.424 155.262C252.189 155.262 253.698 155.568 254.955 156.18C256.226 156.777 257.193 157.596 257.856 158.634C258.533 159.673 258.871 160.847 258.871 162.156H256.352C256.352 161.359 256.12 160.605 255.655 159.893C255.202 159.182 254.533 158.599 253.643 158.143C252.768 157.688 251.695 157.46 250.424 157.46C249.113 157.46 248.046 157.66 247.228 158.058C246.408 158.456 245.808 158.961 245.429 159.573C245.062 160.185 244.878 160.818 244.878 161.473C244.878 161.985 244.956 162.454 245.111 162.881C245.28 163.294 245.576 163.678 246 164.034C246.437 164.389 247.059 164.724 247.862 165.037C248.668 165.35 249.713 165.655 250.996 165.954C252.846 166.367 254.355 166.872 255.528 167.47C256.713 168.053 257.588 168.779 258.153 169.646C258.716 170.5 259 171.539 259 172.762C259 173.715 258.802 174.591 258.406 175.387C258.011 176.17 257.44 176.846 256.691 177.415C255.959 177.984 255.069 178.425 254.025 178.738C252.993 179.051 251.836 179.207 250.551 179.207C248.617 179.207 246.981 178.887 245.639 178.247C244.313 177.593 243.303 176.739 242.612 175.686C241.935 174.619 241.596 173.488 241.596 172.293H244.115C244.201 173.488 244.574 174.434 245.237 175.131C245.9 175.814 246.712 176.298 247.673 176.582C248.646 176.867 249.607 177.009 250.551 177.009C251.85 177.009 252.938 176.817 253.813 176.433C254.688 176.049 255.351 175.544 255.802 174.918C256.254 174.292 256.481 173.616 256.481 172.89Z" fill="black"/>
<path d="M154 193.36H139V208.36H154V193.36Z" fill="#E21313"/>
</g>
<defs>
<clipPath id="clip0_9_2284">
<rect width="480" height="404" fill="white"/>
</clipPath>
</defs>
</svg>
