<svg width="87" height="40" viewBox="0 0 87 40" fill="none" xmlns="http://www.w3.org/2000/svg">
<path d="M10.4729 16.2842C10.4729 15.869 10.4037 15.4988 10.2653 15.1735C10.1269 14.8483 9.89855 14.5577 9.58025 14.3017C9.26886 14.0387 8.84676 13.7965 8.31395 13.5751C7.78806 13.3468 7.13069 13.1219 6.34185 12.9004C5.58761 12.6859 4.90603 12.4507 4.2971 12.1946C3.68817 11.9386 3.16574 11.6445 2.7298 11.3124C2.30078 10.9802 1.9721 10.5927 1.74375 10.1499C1.5154 9.70011 1.40123 9.17768 1.40123 8.58259C1.40123 8.00134 1.52578 7.47199 1.77489 6.99453C2.024 6.51708 2.37344 6.10536 2.82321 5.75937C3.27991 5.41339 3.81618 5.14699 4.43203 4.96016C5.0548 4.77333 5.73638 4.67991 6.47679 4.67991C7.53549 4.67991 8.44888 4.88058 9.21696 5.28192C9.99196 5.68326 10.5905 6.22645 11.0126 6.9115C11.4416 7.58962 11.6561 8.35078 11.6561 9.19498H10.3795C10.3795 8.53761 10.2238 7.9529 9.91239 7.44085C9.60792 6.92187 9.16507 6.51708 8.58382 6.22645C8.00949 5.92891 7.30714 5.78013 6.47679 5.78013C5.64643 5.78013 4.94754 5.90815 4.38013 6.16417C3.81964 6.41328 3.39408 6.74888 3.10346 7.17098C2.81975 7.58616 2.6779 8.04978 2.6779 8.56183C2.6779 8.92165 2.7471 9.25379 2.88549 9.55826C3.02388 9.8558 3.24877 10.136 3.56016 10.399C3.87846 10.655 4.2971 10.8972 4.81607 11.1256C5.33504 11.347 5.97511 11.558 6.73627 11.7587C7.53895 11.9801 8.25167 12.2258 8.87444 12.4956C9.49721 12.7655 10.0231 13.0769 10.4521 13.4298C10.8811 13.7758 11.2064 14.1806 11.4278 14.6442C11.6492 15.1078 11.7599 15.6475 11.7599 16.2634C11.7599 16.8792 11.6285 17.4328 11.3655 17.9241C11.1095 18.4085 10.7462 18.8202 10.2757 19.1593C9.81205 19.4983 9.26194 19.7578 8.62533 19.9377C7.99565 20.1176 7.30714 20.2076 6.55982 20.2076C5.88862 20.2076 5.22087 20.1211 4.55658 19.9481C3.8923 19.7751 3.28337 19.5087 2.7298 19.1489C2.18315 18.7821 1.74375 18.3116 1.41161 17.7373C1.08638 17.1629 0.923772 16.4779 0.923772 15.6821H2.19007C2.19007 16.3187 2.31808 16.855 2.57411 17.291C2.83013 17.7269 3.1692 18.0798 3.59129 18.3497C4.02031 18.6195 4.49085 18.8167 5.0029 18.9413C5.52188 19.0589 6.04085 19.1177 6.55982 19.1177C7.35558 19.1177 8.04408 19.0001 8.62533 18.7648C9.2135 18.5296 9.66674 18.2009 9.98504 17.7788C10.3103 17.3498 10.4729 16.8516 10.4729 16.2842ZM15.4654 4.05714V20H14.2302V4.05714H15.4654ZM15.1852 13.6893L14.635 13.3779C14.6766 12.7136 14.8115 12.0908 15.0398 11.5096C15.2682 10.9283 15.5761 10.4163 15.9636 9.97344C16.358 9.53058 16.8182 9.1846 17.3441 8.93549C17.8769 8.68638 18.4651 8.56183 19.1086 8.56183C19.6691 8.56183 20.1708 8.63795 20.6136 8.79018C21.0565 8.94241 21.4336 9.1846 21.745 9.51674C22.0564 9.84888 22.2916 10.2744 22.4508 10.7934C22.6169 11.3124 22.6999 11.9455 22.6999 12.6929V20H21.4544V12.6825C21.4544 11.9075 21.3471 11.302 21.1326 10.8661C20.9181 10.4232 20.6136 10.1084 20.2192 9.92154C19.8248 9.73471 19.3577 9.64129 18.818 9.64129C18.2229 9.64129 17.7004 9.77277 17.2507 10.0357C16.8078 10.2917 16.4342 10.6273 16.1297 11.0425C15.8321 11.4508 15.6038 11.8902 15.4446 12.3607C15.2855 12.8243 15.199 13.2672 15.1852 13.6893ZM32.7265 17.9864V12.1946C32.7265 11.6618 32.6157 11.2017 32.3943 10.8142C32.1729 10.4267 31.8477 10.1291 31.4186 9.92154C30.9896 9.71395 30.4603 9.61016 29.8306 9.61016C29.2493 9.61016 28.7304 9.71395 28.2737 9.92154C27.8239 10.1222 27.4675 10.3955 27.2046 10.7415C26.9486 11.0806 26.8205 11.4577 26.8205 11.8729L25.575 11.8625C25.575 11.4404 25.6788 11.0321 25.8864 10.6377C26.094 10.2433 26.3881 9.8904 26.7686 9.57902C27.1492 9.26763 27.6025 9.02199 28.1283 8.84208C28.6612 8.65525 29.2459 8.56183 29.8825 8.56183C30.6852 8.56183 31.391 8.69676 31.9999 8.96663C32.6157 9.2365 33.0967 9.64129 33.4426 10.181C33.7886 10.7208 33.9616 11.3989 33.9616 12.2154V17.6439C33.9616 18.0314 33.9893 18.4327 34.0446 18.8479C34.1069 19.2631 34.1934 19.6056 34.3041 19.8754V20H32.9859C32.9029 19.7509 32.8372 19.4395 32.7887 19.0658C32.7472 18.6853 32.7265 18.3254 32.7265 17.9864ZM33.0171 13.4609L33.0378 14.4158H30.5987C29.9621 14.4158 29.3912 14.4747 28.8861 14.5923C28.3878 14.703 27.9657 14.8691 27.6198 15.0905C27.2738 15.305 27.0074 15.5645 26.8205 15.869C26.6406 16.1734 26.5507 16.5194 26.5507 16.9069C26.5507 17.3083 26.651 17.675 26.8517 18.0071C27.0593 18.3393 27.3499 18.6057 27.7236 18.8064C28.1041 19.0001 28.5539 19.097 29.0729 19.097C29.7648 19.097 30.3738 18.969 30.8997 18.7129C31.4325 18.4569 31.8719 18.1213 32.2179 17.7061C32.5638 17.291 32.7956 16.8377 32.9133 16.3464L33.453 17.0626C33.3631 17.4086 33.197 17.765 32.9548 18.1317C32.7195 18.4915 32.4116 18.8306 32.031 19.1489C31.6504 19.4603 31.2007 19.7163 30.6817 19.917C30.1696 20.1107 29.5884 20.2076 28.9379 20.2076C28.2045 20.2076 27.5644 20.0692 27.0177 19.7924C26.478 19.5156 26.0559 19.1385 25.7515 18.661C25.4539 18.1767 25.3051 17.63 25.3051 17.0211C25.3051 16.4675 25.4228 15.9728 25.658 15.5368C25.8933 15.094 26.2324 14.7203 26.6752 14.4158C27.125 14.1045 27.6647 13.8692 28.2944 13.71C28.931 13.544 29.6438 13.4609 30.4326 13.4609H33.0171ZM38.5286 11.1671V20H37.2934V8.76942H38.4767L38.5286 11.1671ZM38.2483 13.6893L37.6982 13.3779C37.7397 12.7136 37.8747 12.0908 38.103 11.5096C38.3314 10.9283 38.6393 10.4163 39.0268 9.97344C39.4212 9.53058 39.8814 9.1846 40.4073 8.93549C40.9401 8.68638 41.5282 8.56183 42.1718 8.56183C42.7323 8.56183 43.2339 8.63795 43.6768 8.79018C44.1196 8.94241 44.4968 9.1846 44.8081 9.51674C45.1195 9.84888 45.3548 10.2744 45.514 10.7934C45.68 11.3124 45.7631 11.9455 45.7631 12.6929V20H44.5175V12.6825C44.5175 11.9075 44.4103 11.302 44.1958 10.8661C43.9813 10.4232 43.6768 10.1084 43.2824 9.92154C42.8879 9.73471 42.4209 9.64129 41.8811 9.64129C41.2861 9.64129 40.7636 9.77277 40.3138 10.0357C39.871 10.2917 39.4973 10.6273 39.1929 11.0425C38.8953 11.4508 38.667 11.8902 38.5078 12.3607C38.3487 12.8243 38.2622 13.2672 38.2483 13.6893ZM56.3709 8.76942H57.523V19.8028C57.523 20.7785 57.3362 21.6157 56.9625 22.3146C56.5958 23.0135 56.0733 23.5498 55.3952 23.9234C54.724 24.2971 53.9317 24.4839 53.0183 24.4839C52.5547 24.4839 52.0772 24.4113 51.5859 24.266C51.1016 24.1276 50.6414 23.9131 50.2055 23.6224C49.7765 23.3387 49.4097 22.9858 49.1052 22.5637L49.8007 21.806C50.2574 22.3596 50.7452 22.7644 51.2642 23.0204C51.7831 23.2834 52.3436 23.4148 52.9456 23.4148C53.6584 23.4148 54.2604 23.273 54.7517 22.9893C55.2499 22.7056 55.627 22.2973 55.883 21.7645C56.146 21.2317 56.2775 20.5916 56.2775 19.8443V11.2397L56.3709 8.76942ZM48.4825 14.4989V14.2809C48.4825 13.409 48.5794 12.6237 48.7731 11.9248C48.9738 11.219 49.2609 10.617 49.6346 10.1187C50.0083 9.61362 50.4615 9.22958 50.9943 8.96663C51.534 8.69676 52.143 8.56183 52.8211 8.56183C53.4715 8.56183 54.0493 8.66908 54.5545 8.88359C55.0596 9.0981 55.4955 9.40603 55.8623 9.80737C56.229 10.2087 56.5231 10.6862 56.7445 11.2397C56.9729 11.7933 57.139 12.4092 57.2427 13.0873V15.8586C57.1597 16.4952 57.0075 17.0799 56.786 17.6127C56.5646 18.1386 56.2705 18.5988 55.9038 18.9932C55.5371 19.3807 55.0942 19.6817 54.5752 19.8962C54.0632 20.1038 53.4715 20.2076 52.8003 20.2076C52.1291 20.2076 51.5271 20.0692 50.9943 19.7924C50.4615 19.5156 50.0083 19.1247 49.6346 18.6195C49.2609 18.1075 48.9738 17.502 48.7731 16.8031C48.5794 16.1042 48.4825 15.3362 48.4825 14.4989ZM49.728 14.2809V14.4989C49.728 15.1562 49.7938 15.7652 49.9252 16.3257C50.0567 16.8862 50.2574 17.374 50.5272 17.7892C50.7971 18.2044 51.1396 18.5296 51.5548 18.7648C51.97 19.0001 52.4578 19.1177 53.0183 19.1177C53.731 19.1177 54.3296 18.9828 54.814 18.7129C55.2983 18.4362 55.6824 18.0729 55.9661 17.6231C56.2498 17.1664 56.4574 16.6682 56.5888 16.1285V12.9004C56.5127 12.5337 56.3951 12.16 56.2359 11.7795C56.0837 11.3989 55.8692 11.0494 55.5924 10.7311C55.3225 10.4059 54.9766 10.1464 54.5545 9.95268C54.1393 9.75201 53.6342 9.65167 53.0391 9.65167C52.4717 9.65167 51.9769 9.76931 51.5548 10.0046C51.1396 10.2398 50.7971 10.5685 50.5272 10.9906C50.2574 11.4058 50.0567 11.8936 49.9252 12.4541C49.7938 13.0146 49.728 13.6235 49.728 14.2809ZM62.0069 4.05714V20H60.7718V4.05714H62.0069ZM61.7267 13.6893L61.1766 13.3779C61.2181 12.7136 61.353 12.0908 61.5814 11.5096C61.8097 10.9283 62.1176 10.4163 62.5051 9.97344C62.8996 9.53058 63.3597 9.1846 63.8856 8.93549C64.4184 8.68638 65.0066 8.56183 65.6501 8.56183C66.2106 8.56183 66.7123 8.63795 67.1551 8.79018C67.598 8.94241 67.9751 9.1846 68.2865 9.51674C68.5979 9.84888 68.8331 10.2744 68.9923 10.7934C69.1584 11.3124 69.2414 11.9455 69.2414 12.6929V20H67.9959V12.6825C67.9959 11.9075 67.8886 11.302 67.6741 10.8661C67.4596 10.4232 67.1551 10.1084 66.7607 9.92154C66.3663 9.73471 65.8992 9.64129 65.3595 9.64129C64.7644 9.64129 64.242 9.77277 63.7922 10.0357C63.3493 10.2917 62.9757 10.6273 62.6712 11.0425C62.3737 11.4508 62.1453 11.8902 61.9862 12.3607C61.827 12.8243 61.7405 13.2672 61.7267 13.6893ZM79.268 17.9864V12.1946C79.268 11.6618 79.1573 11.2017 78.9358 10.8142C78.7144 10.4267 78.3892 10.1291 77.9602 9.92154C77.5311 9.71395 77.0018 9.61016 76.3721 9.61016C75.7909 9.61016 75.2719 9.71395 74.8152 9.92154C74.3654 10.1222 74.009 10.3955 73.7461 10.7415C73.4901 11.0806 73.3621 11.4577 73.3621 11.8729L72.1165 11.8625C72.1165 11.4404 72.2203 11.0321 72.4279 10.6377C72.6355 10.2433 72.9296 9.8904 73.3102 9.57902C73.6907 9.26763 74.144 9.02199 74.6699 8.84208C75.2027 8.65525 75.7874 8.56183 76.424 8.56183C77.2267 8.56183 77.9325 8.69676 78.5414 8.96663C79.1573 9.2365 79.6382 9.64129 79.9842 10.181C80.3301 10.7208 80.5031 11.3989 80.5031 12.2154V17.6439C80.5031 18.0314 80.5308 18.4327 80.5862 18.8479C80.6484 19.2631 80.7349 19.6056 80.8457 19.8754V20H79.5275C79.4444 19.7509 79.3787 19.4395 79.3302 19.0658C79.2887 18.6853 79.268 18.3254 79.268 17.9864ZM79.5586 13.4609L79.5794 14.4158H77.1402C76.5036 14.4158 75.9327 14.4747 75.4276 14.5923C74.9294 14.703 74.5073 14.8691 74.1613 15.0905C73.8153 15.305 73.5489 15.5645 73.3621 15.869C73.1821 16.1734 73.0922 16.5194 73.0922 16.9069C73.0922 17.3083 73.1925 17.675 73.3932 18.0071C73.6008 18.3393 73.8914 18.6057 74.2651 18.8064C74.6457 19.0001 75.0954 19.097 75.6144 19.097C76.3064 19.097 76.9153 18.969 77.4412 18.7129C77.974 18.4569 78.4134 18.1213 78.7594 17.7061C79.1054 17.291 79.3372 16.8377 79.4548 16.3464L79.9945 17.0626C79.9046 17.4086 79.7385 17.765 79.4963 18.1317C79.2611 18.4915 78.9531 18.8306 78.5725 19.1489C78.192 19.4603 77.7422 19.7163 77.2232 19.917C76.7112 20.1107 76.1299 20.2076 75.4795 20.2076C74.746 20.2076 74.1059 20.0692 73.5593 19.7924C73.0195 19.5156 72.5974 19.1385 72.293 18.661C71.9954 18.1767 71.8467 17.63 71.8467 17.0211C71.8467 16.4675 71.9643 15.9728 72.1996 15.5368C72.4348 15.094 72.7739 14.7203 73.2167 14.4158C73.6665 14.1045 74.2063 13.8692 74.8359 13.71C75.4725 13.544 76.1853 13.4609 76.9741 13.4609H79.5586ZM85.2154 8.76942V20H83.9802V8.76942H85.2154ZM83.7623 5.52065C83.7623 5.28538 83.8349 5.08817 83.9802 4.92902C84.1325 4.76295 84.3401 4.67991 84.603 4.67991C84.866 4.67991 85.0736 4.76295 85.2258 4.92902C85.3849 5.08817 85.4645 5.28538 85.4645 5.52065C85.4645 5.749 85.3849 5.94621 85.2258 6.11228C85.0736 6.27143 84.866 6.351 84.603 6.351C84.3401 6.351 84.1325 6.27143 83.9802 6.11228C83.8349 5.94621 83.7623 5.749 83.7623 5.52065Z" fill="black"/>
<rect x="39" y="30" width="10" height="10" fill="#E21313"/>
</svg>
