<svg width="480" height="404" viewBox="0 0 480 404" fill="none" xmlns="http://www.w3.org/2000/svg">
<g clip-path="url(#clip0_9_1356)">
<rect width="480" height="404" fill="white"/>
<path d="M177.32 383.597L168.644 389.852L158.757 385.816L156.739 374.719L161.178 368.867L172.881 365.235L179.54 365.437L182.769 370.481L178.733 376.131L177.32 383.597Z" fill="#ECECEC" stroke="black" stroke-width="0.289173" stroke-linecap="round" stroke-linejoin="round"/>
<path d="M224.536 -12.6984L242.696 -3.61827L254.803 8.08497H270.138L275.385 3.24223L289.308 -0.591572L291.931 10.9099L291.325 15.5508L296.975 29.2718L298.186 41.7822L284.263 39.5626L278.412 44.0018L287.895 54.8979L295.765 70.0314L290.72 70.2331L294.554 76.8918L283.456 69.2242V76.4883L270.542 81.9363L276.192 88.7969L266.91 88.1915L259.646 84.1559L257.427 93.4378L249.557 100.298L245.32 108.571L232.607 112.203L227.765 118.257L218.079 121.889L220.702 115.835L216.062 110.791L220.097 102.114L211.017 95.4556L204.157 99.8948L196.893 108.975L194.269 117.248L184.18 117.853L181.557 123.907L191.243 132.583L200.928 134.803L203.753 140.452L214.044 144.286L221.711 135.004L233.616 140.049L240.679 140.452L245.32 147.111L231.8 150.743L229.783 157.806L222.115 164.263L220.299 173.343L234.625 180.405L243.907 193.117L255.005 205.022L266.103 214.909L269.332 224.595L263.682 228.227L268.524 235.087L276.394 239.123L278.008 249.615L278.21 259.906L272.56 261.117L268.323 275.04L263.682 292.191L256.821 307.526L243.907 319.431L230.59 330.529L218.281 331.941L212.43 337.591L207.789 333.556L202.744 339.811L188.216 346.47L176.513 348.286L175.1 362.007L168.845 362.814L164.406 353.33L166.222 348.487L150.483 344.25L145.64 346.47L133.735 343.039L127.48 337.793L128.086 330.327L117.391 327.906L111.136 323.063L102.863 329.924L92.1688 331.538L83.2904 331.336L77.8425 334.565L72.3943 336.381L76.4299 351.312L70.3765 350.909L68.7624 347.882L67.7535 342.434L60.0858 346.268L54.8395 343.847L45.7595 339.004L47.3738 328.309L39.9078 325.686L35.065 313.781L23.7654 316.001L22.353 300.666L30.8277 289.77L29.0116 279.075L26.3886 269.188L20.9404 266.161L15.4925 258.494L9.23737 259.503L-3.07117 257.485L-0.649902 252.037L-7.91394 243.966L-14.371 249.414L-24.2581 246.387L-35.1542 254.458L-43.0237 264.144L-51.4983 265.758L-57.1483 262.327L-62.9999 261.924L-71.6763 259.099L-76.9228 262.327L-82.169 272.013L-85.1957 261.722L-91.4508 264.547L-104.566 263.135L-117.682 260.31L-127.771 254.458L-136.851 252.037L-141.896 245.782L-148.555 243.966L-161.468 235.491L-171.154 231.455L-174.988 234.482L-192.341 225.402L-204.851 217.331L-211.308 203.004L-203.035 204.82L-204.246 198.161L-210.299 191.503L-211.913 181.01L-227.45 165.675L-246.62 160.63L-252.471 150.541L-261.955 144.488L-264.981 140.856L-268.614 133.592L-269.622 128.547L-277.088 125.521L-280.115 126.933L-286.37 114.826L-284.151 112.002L-286.572 108.975L-278.299 102.921L-271.842 100.298L-260.139 102.114L-258.928 93.8414L-246.014 92.4289L-243.996 87.1826L-230.073 80.3221L-229.67 77.4972L-233.1 70.0314L-227.249 66.8029L-245.005 44.6071L-226.643 39.5626L-222.608 36.7377L-224.625 13.9366L-202.833 18.174L-199.605 12.3223L-204.649 -0.188019L-196.982 -1.39868L-193.148 -9.87345L-189.717 -10.8824L-183.059 -2.00402L-171.557 4.65472L-155.011 9.29562L-143.308 19.5864L-140.483 34.3163L-134.43 39.9662L-121.314 42.1857L-106.786 43.8L-90.6436 51.8712L-83.7831 53.2836L-73.6941 64.9869L-64.2105 72.6545L-52.9109 72.2509L-30.1097 75.2776L-17.1957 73.4616L-5.89612 75.2776L13.0712 83.147H25.5815L32.2403 86.9808L41.1184 80.1203L55.6467 75.6812L70.9819 75.2776L80.8692 70.8385L84.9048 63.978L89.7475 59.5388L85.9137 55.3014L80.062 50.4587L81.0709 42.1857L87.5278 43.3964L99.4328 46.0196L105.89 39.159L118.804 34.3163L121.427 25.8416L126.471 22.2095L140.192 20.5953L149.071 22.0078L147.457 17.5686L132.928 8.69031L122.436 4.65472L117.391 9.29562L106.293 7.27783L101.652 8.89207L96.0027 3.84758L95.3972 -8.86455L94.1866 -18.3482L109.118 -13.5055L117.997 -21.3749L114.163 -27.0247L113.759 -40.1404L116.382 -44.176L111.338 -51.0365L103.872 -53.8614L107.302 -60.1166L117.593 -62.3362L130.103 -62.7397L147.457 -58.9059L159.563 -54.4668L175.1 -41.9564L182.768 -36.5084L191.848 -28.8407L204.358 -16.734L224.536 -12.6984Z" fill="#ECECEC" stroke="black" stroke-width="0.289173" stroke-linecap="round" stroke-linejoin="round"/>
<path d="M-174.987 234.482L-180.637 240.536L-182.453 252.642L-170.75 257.485L-159.047 263.74L-143.308 271.004L-127.771 272.82L-120.103 279.277L-111.427 280.488L-97.5039 283.515L-88.222 283.313L-88.0203 278.268L-91.047 269.995L-91.4505 264.547L-85.1953 261.722L-82.1686 272.013L-81.3615 274.435L-70.2636 279.479L-63.8067 277.461L-54.3229 278.268L-45.2429 277.865L-46.2517 269.995L-51.498 265.758L-43.0233 264.144L-35.1539 254.458L-24.2577 246.387L-14.3707 249.414L-7.9136 243.966L-0.649567 252.037L-3.07083 257.485L9.2377 259.503L11.2555 264.346L7.82507 266.767L10.6501 274.636L2.17538 272.417L-10.3351 281.295L-8.51904 288.761L-12.5546 299.657L-11.9492 305.912L-15.1776 316.607L-24.4597 313.58L-22.6436 327.099L-24.6614 331.538L-22.6436 336.986L-27.6881 340.013L-36.5665 319.431H-39.5932L-40.1984 327.906L-47.4624 321.046L-45.0411 313.782L-40.1984 312.975L-36.9699 302.078L-43.8305 299.859L-54.1212 300.061L-65.0174 298.245L-67.4386 289.165L-72.8868 288.559L-82.7738 282.909L-85.1953 291.788L-75.9135 298.648L-81.9669 303.491L-83.7827 308.132L-76.317 311.562L-76.9224 319.431L-71.6759 329.117L-68.4475 339.811L-69.4564 344.654L-77.1241 344.452L-90.4416 347.075L-88.6255 356.761L-93.4683 364.428L-108.602 373.307L-119.296 388.44L-126.964 396.713L-137.053 405.188L-136.447 411.039L-141.694 414.268L-151.379 418.909L-156.625 419.514L-159.047 429.401L-155.213 446.351L-153.8 457.045L-157.634 469.354L-156.222 491.348L-162.073 491.953L-166.714 501.84L-162.881 506.28L-173.171 509.912L-176.601 518.588L-181.041 522.422L-192.34 510.315L-198.595 492.155L-203.64 479.039L-208.079 472.986L-214.94 460.476L-218.975 444.333L-221.8 436.262L-233.705 418.505L-240.767 393.283L-246.014 376.737L-247.628 360.998L-251.058 348.891L-266.595 356.761L-274.667 355.146L-291.011 339.408L-286.168 334.767L-290.002 329.722L-304.328 318.624L-297.871 309.948H-273.456L-277.088 298.85L-284.15 292.393L-286.975 282.304L-295.046 276.654L-285.159 262.933L-272.043 263.942L-262.963 250.423L-258.524 237.307L-250.655 224.191L-252.673 214.91L-245.005 207.444L-255.296 201.189L-261.147 192.31L-267.806 181.011L-263.77 175.361L-246.619 178.589L-235.118 176.571L-227.45 165.675L-211.913 181.011L-210.299 191.503L-204.245 198.162L-203.035 204.821L-211.308 203.005L-204.851 217.331L-192.34 225.402L-174.987 234.482Z" fill="#ECECEC" stroke="black" stroke-width="0.289173" stroke-linecap="round" stroke-linejoin="round"/>
<path d="M391.812 183.229L395.041 187.669L392.418 195.538L386.163 191.301L381.925 194.327L382.127 201.793L373.451 198.161L371.029 192.108L373.652 184.238L380.513 185.853L382.531 180.405L391.812 183.229Z" fill="#ECECEC" stroke="black" stroke-width="0.289173" stroke-linecap="round" stroke-linejoin="round"/>
<path d="M441.449 144.488L442.66 154.779L447.705 161.236L446.494 170.316L435.598 176.369L417.034 177.177L408.156 192.108L398.672 187.064L393.83 177.378L376.477 180.203L366.186 186.257L353.675 186.66L368.607 196.144L370.221 218.138L365.177 223.586L357.913 218.541L356.097 206.838L347.824 203.206L339.752 194.328L348.429 190.292L350.649 182.019L358.518 175.361L362.554 166.482L382.126 162.648L394.838 165.272V142.269L405.129 148.524L414.209 135.61L417.64 130.565L415.622 114.827L405.331 100.298L404.927 92.2273L414.613 89.8059L431.159 107.764L436.809 118.055L434.185 131.171L441.449 144.488Z" fill="#ECECEC" stroke="black" stroke-width="0.289173" stroke-linecap="round" stroke-linejoin="round"/>
<path d="M417.438 54.0905L426.518 56.7136L430.15 51.4674L442.257 65.7937L429.343 69.224L428.536 81.9361L406.542 73.2596L409.77 87.1824L398.269 87.3842L388.785 74.672L387.575 64.7848L398.067 64.1795L389.189 46.4229L385.557 36.5356L406.744 49.8531L417.438 54.0905Z" fill="#ECECEC" stroke="black" stroke-width="0.289173" stroke-linecap="round" stroke-linejoin="round"/>
<path d="M279.623 136.619V135.408L284.667 135.812L285.878 130.162L293.142 129.355L297.177 128.547V125.521L313.925 140.654L320.584 149.129L327.444 164.061L326.435 171.123L317.759 173.544L311.504 178.992L302.222 180.001L297.984 172.939L295.765 163.254L285.071 149.936L291.931 147.717L279.623 136.619Z" fill="#ECECEC" stroke="black" stroke-width="0.289173" stroke-linecap="round" stroke-linejoin="round"/>
<path d="M152.3 441.508L141.606 436.867L137.57 445.745L127.481 440.701L130.508 434.849L129.701 423.953L119.006 412.653L116.383 399.74L106.294 389.247L97.6176 388.44L96.0035 392.879L89.5464 393.283L85.7128 391.063L75.0184 398.731L73.0006 387.027L73.8077 373.508L66.14 372.903L64.3239 365.033L58.876 360.998L60.4903 356.357L68.7632 347.882L70.3773 350.909L76.4307 351.312L72.3951 336.381L77.8433 334.565L85.9145 344.855L92.9768 356.559H106.698L112.751 367.858L106.092 371.289L103.671 375.93L118.401 383.799L129.902 399.134L138.781 410.434L148.668 419.514L152.704 428.594L152.3 441.508Z" fill="#ECECEC" stroke="black" stroke-width="0.289173" stroke-linecap="round" stroke-linejoin="round"/>
<path d="M68.7627 347.882L60.4898 356.357L58.8754 360.998L52.822 364.024L47.1721 369.674L39.3029 370.279L36.2762 384.202L31.8369 386.624L38.8992 397.923L47.1721 407.407L53.0238 416.083L50.1988 427.181L46.5669 429.603L50.1988 436.06L58.8754 446.35L60.8932 453.614L61.2967 459.668L66.7449 471.573L61.4987 483.68L57.0594 496.997L55.2433 487.312L57.8665 477.424L53.4275 469.757L53.0238 455.632L47.7775 448.772L42.3296 433.436L38.294 417.092L32.0386 406.196L25.5818 412.855L13.8784 421.935L7.21986 420.926L-0.0441666 417.899L1.77165 401.757L-2.26394 389.65L-12.9581 374.719L-12.3529 370.078L-19.2132 368.262L-28.4953 357.769L-30.7148 347.276L-26.4775 349.294L-27.6881 340.012L-22.6437 336.986L-24.6614 331.538L-22.6437 327.099L-24.4597 313.579L-15.1777 316.606L-11.9492 305.912L-12.5547 299.656L-8.51907 288.76L-10.3351 281.295L2.17536 272.416L10.65 274.636L7.82505 266.766L11.2555 264.345L9.23766 259.502L15.4928 258.493L20.9407 266.161L26.3889 269.188L29.0119 279.075L30.828 289.769L22.3533 300.665L23.7657 316.001L35.0653 313.781L39.9081 325.686L47.3741 328.309L45.7598 339.004L54.8398 343.846L60.0861 346.268L67.7538 342.434L68.7627 347.882Z" fill="#ECECEC" stroke="black" stroke-width="0.289173" stroke-linecap="round" stroke-linejoin="round"/>
<path d="M-36.5664 -20.7697L-28.4952 -23.191L-16.9936 -24.8053L-6.09744 -22.9893L7.21997 -17.1377L17.1072 -10.6807H26.389L40.1099 -8.66291L47.3742 -11.8914L59.279 -13.9092L68.1573 -22.7875L75.0179 -21.375L82.8874 -17.1377L94.187 -18.3483L95.3976 -8.8647L96.0031 3.84743L101.653 8.89193L106.294 7.27768L117.392 9.29548L122.436 4.65457L132.929 8.69017L147.457 17.5685L149.071 22.0076L140.193 20.5952L126.472 22.2094L121.427 25.8414L118.804 34.3162L105.89 39.1589L99.4332 46.0194L87.5282 43.3963L81.0713 42.1856L80.0624 50.4586L85.9141 55.3013L89.748 59.5387L84.9052 63.9778L80.8696 70.8383L70.9823 75.2775L55.6471 75.681L41.1188 80.1202L32.2407 86.9807L25.5819 83.1469H13.0716L-5.89572 75.2775L-17.1953 73.4615L-30.1093 75.2775L-52.9105 72.2508L-64.2101 72.6543L-73.6937 64.9867L-83.7827 53.2835L-90.6432 51.871L-106.786 43.7998L-121.314 42.1856L-134.43 39.966L-140.483 34.3162L-143.308 19.5863L-155.011 9.29548L-171.557 4.65457L-183.058 -2.00417L-189.717 -10.8825L-180.233 -13.1021L-166.714 -23.7964L-154.809 -29.648L-144.115 -25.8142L-133.622 -25.6124L-123.937 -19.7608L-113.848 -19.3572L-97.7055 -16.1288L-92.8627 -25.0071L-100.934 -32.2711L-98.311 -45.1851L-84.1864 -40.1406L-74.5008 -38.5263L-60.9817 -35.2978L-53.7177 -26.016L-36.5664 -20.7697Z" fill="#ECECEC" stroke="black" stroke-width="0.289173" stroke-linecap="round" stroke-linejoin="round"/>
<path d="M301.415 385.816L309.082 389.65L311.907 386.22L313.521 389.448L312.715 394.896L317.961 404.178L316.75 414.873L310.898 419.11L310.697 429.603L314.732 439.893L320.786 441.306L325.628 439.893L340.762 446.956L340.56 454.018L344.797 457.246L344.192 463.098L334.708 456.843L329.664 449.982L327.243 454.825L319.171 446.956L309.082 448.973L303.029 446.149L302.827 440.701L306.056 437.472L302.222 434.445L301.415 439.086L294.756 431.62L292.133 425.971L289.913 413.662L295.16 417.899L292.94 397.52L294.554 385.816H301.415Z" fill="#ECECEC" stroke="black" stroke-width="0.289173" stroke-linecap="round" stroke-linejoin="round"/>
<path d="M294.555 76.8917L297.38 79.1113L292.941 78.3042L290.923 82.7434L290.317 86.9807L295.967 96.2626L292.133 99.0875L291.528 101.307L289.712 105.141L283.86 107.36L281.035 110.791L283.659 116.239L283.053 117.651L288.299 119.871L297.178 125.521V128.547L293.142 129.354L285.878 130.162L284.668 135.811L279.623 135.408V136.619L273.166 134.197L272.964 136.619L270.341 137.627L268.929 135.206L265.499 133.995L261.665 131.978L261.866 126.328L263.682 124.714L261.665 122.494L260.857 115.432L259.041 113.414L252.181 112.001L245.321 108.571L249.558 100.298L257.427 93.4377L259.647 84.1558L266.911 88.1914L276.193 88.7968L270.543 81.9362L283.457 76.4882V69.2241L294.555 76.8917Z" fill="#ECECEC" stroke="black" stroke-width="0.289173" stroke-linecap="round" stroke-linejoin="round"/>
<path d="M127.481 440.701L116.787 438.885L102.46 441.306L96.2052 452.001L100.443 467.74L89.7484 461.686L80.0628 462.09L80.6683 451.799H70.781L71.1845 466.125L66.7454 485.093L63.9204 496.594L65.3328 505.876L72.7988 506.279L78.2468 518.184L80.87 529.282L87.7306 536.748L94.5909 538.161L100.846 545.021L97.4158 550.267L89.9501 551.882L88.7395 545.223L79.0539 539.573L77.2379 541.793L72.5971 536.95L70.1756 530.493L63.7187 523.229L57.867 516.974L56.4547 524.641L53.8314 517.377L54.6386 509.306L57.0599 496.998L61.4992 483.68L66.7454 471.573L61.2972 459.668L60.8937 453.615L58.8759 446.351L50.1993 436.06L46.5674 429.603L50.1993 427.182L53.0243 416.084L47.1726 407.407L38.8997 397.924L31.8374 386.624L36.2767 384.203L39.3034 370.28L47.1726 369.675L52.8225 364.025L58.8759 360.998L64.3239 365.034L66.14 372.903L73.8077 373.508L73.0005 387.028L75.0183 398.731L85.7128 391.063L89.5464 393.283L96.0035 392.879L97.6176 388.44L106.294 389.247L116.383 399.74L119.006 412.654L129.701 423.953L130.508 434.849L127.481 440.701Z" fill="#ECECEC" stroke="black" stroke-width="0.289173" stroke-linecap="round" stroke-linejoin="round"/>
<path d="M289.712 330.327L286.887 341.022L278.816 329.924L275.789 320.44L279.623 307.728L286.281 297.841L292.335 301.675L292.133 309.544L289.712 330.327Z" fill="#ECECEC" stroke="black" stroke-width="0.289173" stroke-linecap="round" stroke-linejoin="round"/>
<path d="M145.641 346.469L132.525 357.366L125.059 369.674L123.848 378.754L134.543 392.273L147.659 409.223L159.16 417.294L167.433 427.585L175.504 451.597L176.311 474.398L167.635 482.873L155.326 491.347L146.851 502.042L133.534 514.148L128.893 505.875L131.314 496.997L122.436 489.733L131.718 484.487L143.623 483.478L137.973 475.81L156.133 465.721L155.931 450.184L152.3 441.508L152.703 428.594L148.667 419.514L138.78 410.434L129.902 399.134L118.4 383.799L103.67 375.929L106.092 371.288L112.751 367.858L106.697 356.558H92.9763L85.914 344.855L77.8428 334.564L83.2907 331.336L92.1691 331.538L102.864 329.923L111.136 323.063L117.392 327.906L128.086 330.327L127.481 337.793L133.736 343.039L145.641 346.469Z" fill="#ECECEC" stroke="black" stroke-width="0.289173" stroke-linecap="round" stroke-linejoin="round"/>
<path d="M353.474 -29.0423L381.118 -6.84653L363.159 -10.8821L370.625 7.27806L389.996 20.192L396.049 29.0703L382.934 21.4026L383.135 31.2899L373.652 20.5955L365.984 8.28696L354.684 -5.23228L349.842 -14.9177L336.928 -31.4636L320.786 -43.7722L307.065 -60.7217L310.898 -66.3716L302.02 -72.0214L304.643 -73.8374L314.53 -65.7662L328.453 -53.8612L338.946 -41.5526L353.474 -29.0423Z" fill="#ECECEC" stroke="black" stroke-width="0.289173" stroke-linecap="round" stroke-linejoin="round"/>
<path d="M297.379 79.1121L294.555 76.8925L290.721 70.2338L295.765 70.032L287.896 54.8985L278.412 44.0024L284.264 39.5632L298.187 41.7828L296.976 29.2725L291.326 15.5515L291.931 10.9105L289.308 -0.590942L275.385 3.24289L270.139 8.0856H254.804L242.697 -3.61761L224.537 -12.6977L204.359 -16.7333L191.849 -28.8401L182.769 -36.5078L175.101 -41.9558L159.564 -54.4661L147.457 -58.9053L130.104 -62.7391L117.594 -62.3356L107.303 -60.116L103.873 -53.8608L111.338 -51.0359L116.383 -44.1754L113.76 -40.1398L114.163 -27.0241L117.997 -21.3743L109.119 -13.5048L94.1872 -18.3476L82.8876 -17.1369L75.0181 -21.3743L68.1575 -22.7867L59.2792 -13.9084L47.3744 -11.8906L40.1101 -8.66211L26.3892 -10.6799H17.1074L7.22015 -17.1369L-6.09729 -22.9885L-16.9934 -24.8045L-28.4951 -23.1902L-36.5662 -20.7689L-53.7175 -26.0152L-60.9815 -35.2971L-74.5007 -38.5255L-84.1862 -40.1398L-98.3108 -45.1843L-100.934 -32.2704L-92.8626 -25.0063L-97.7054 -16.128L-113.848 -19.3564L-123.937 -19.76L-133.622 -25.6116L-144.115 -25.8134L-154.809 -29.6472L-166.714 -23.7956L-180.233 -13.1013L-189.717 -10.8817L-193.147 -9.8728L-202.026 -17.5404L-214.132 -15.7244L-220.791 -21.1725L-228.862 -23.5938L-237.135 -30.8579L-243.794 -33.0775L-256.304 -29.849L-273.254 -36.9113L-275.473 -30.4543L-312.399 -61.932L-329.349 -71.4156L-327.734 -75.4512L-346.298 -63.748L-355.176 -63.1427L-357.396 -69.8014L-371.722 -74.0388L-380.399 -71.0121L-389.277 -83.7242L-407.639 -86.3474L-413.894 -81.3029L-435.888 -76.6619L-439.319 -73.6352L-473.621 -69.3979L-476.446 -65.1605L-466.155 -56.6857L-474.226 -53.4572L-471.2 -50.2288L-478.262 -44.1754L-459.295 -35.4988L-459.698 -29.6472L-473.823 -30.2526L-475.437 -26.4188L-490.167 -32.8757L-505.704 -32.6739L-514.582 -27.4276L-527.9 -32.4721L-552.114 -41.1487L-567.449 -40.7451L-583.793 -27.2259L-582.582 -18.1458L-594.689 -25.4099L-599.128 -11.487L-595.496 -9.06567L-598.926 0.619751L-588.232 9.09451L-580.968 8.69095L-572.292 17.1657L-571.888 23.6227L-566.238 25.8422L-569.063 33.3081L-578.345 35.3259L-585.609 48.4416L-573.502 60.7501L-572.695 69.2249L-557.965 84.3584L-563.01 89.6046L-564.22 92.8331L-569.063 91.8242L-577.74 84.1566L-580.766 83.753L-588.03 80.7263L-592.268 75.48L-602.559 72.8569L-608.41 74.8747L-610.831 72.4533L-626.167 66.1982L-641.704 64.1804L-650.986 61.9608L-651.793 63.575L-667.128 52.6789L-679.638 47.8362L-689.929 40.3704L-682.665 38.3526L-676.208 27.86L-682.867 22.8156L-668.944 17.5692L-669.751 14.7444L-678.428 16.7621L-679.235 11.3141L-674.796 7.68207L-665.11 6.87491L-664.505 2.63757L-668.137 -4.42474L-665.514 -10.8817L-666.321 -14.7155L-681.858 -18.7511L-687.71 -18.5493L-694.974 -24.4009L-702.238 -22.3831L-715.757 -26.8223L-715.959 -29.2437L-720.6 -34.6917L-728.469 -35.2971L-730.083 -39.1309L-728.267 -41.754L-735.935 -48.8163L-745.822 -47.6056L-748.849 -48.211L-750.867 -45.386L-754.499 -45.7896L-758.534 -53.8608L-761.561 -57.8964L-759.947 -59.1071L-752.077 -58.7035L-748.849 -61.3267L-752.279 -64.5551L-759.14 -66.7747V-68.9943L-763.377 -71.2139L-771.045 -79.2851L-769.632 -82.5135L-771.852 -88.3652L-781.537 -91.1901L-786.38 -89.7776L-788.196 -92.8043L-798.89 -95.831L-803.127 -103.095L-805.145 -108.947L-810.19 -111.57L-806.961 -115.404L-811.804 -126.703L-806.558 -133.564L-808.374 -135.582L-799.294 -142.24L-810.19 -147.89L-794.047 -162.822L-787.187 -169.682L-785.371 -175.534L-800.303 -183.403L-798.487 -191.071L-808.374 -199.546L-804.944 -209.231L-818.059 -221.943L-812.208 -230.418L-826.938 -237.884L-827.745 -245.552L-821.288 -246.561L-808.374 -250.798L-800.908 -254.632L-785.371 -248.175L-761.763 -245.552L-726.048 -233.041L-717.775 -227.795L-714.748 -220.329L-722.214 -214.478L-735.33 -211.451L-776.089 -219.926L-781.941 -218.513L-765.596 -210.24L-763.579 -204.994L-759.745 -193.291L-747.436 -189.86L-739.769 -186.834L-740.172 -192.484L-747.033 -197.326L-742.796 -201.765L-719.389 -194.501L-712.932 -197.326L-721.609 -205.801L-705.264 -216.697L-696.991 -216.092L-687.71 -212.258L-685.49 -219.926L-694.974 -226.584L-693.359 -233.243L-702.036 -240.104L-677.217 -236.472L-669.953 -230.418L-680.244 -229.006L-677.822 -222.75L-669.549 -218.917L-657.443 -221.338L-658.25 -228.4L-642.713 -233.848L-617.692 -243.13L-611.235 -242.727L-616.279 -236.068L-605.383 -234.857L-601.146 -238.691L-585.609 -238.893L-575.52 -243.534L-562.606 -236.875L-556.956 -244.139L-569.063 -250.394L-566.642 -254.026L-540.41 -250.798L-527.093 -247.368L-489.562 -234.857L-487.342 -240.507L-499.247 -246.359L-500.861 -248.578L-511.556 -249.789L-511.959 -254.833L-521.443 -263.308L-523.662 -266.738L-514.986 -276.222L-516.197 -285.908L-511.758 -287.925L-488.755 -285.1L-482.903 -279.249L-484.719 -270.774L-477.253 -267.344L-469.586 -259.878L-461.918 -244.946L-448.399 -238.288L-447.39 -230.822L-454.452 -215.083L-443.758 -213.469L-442.749 -217.504L-435.081 -220.329L-436.09 -225.777L-432.256 -231.225L-441.135 -237.48L-441.942 -244.744L-451.627 -245.552L-457.479 -251.605L-458.286 -262.501L-474.832 -271.178L-465.348 -278.24L-472.814 -285.706L-468.98 -285.908L-460.506 -280.258L-456.268 -269.967L-446.179 -267.949L-455.461 -275.617L-445.17 -279.854L-428.826 -280.46L-409.455 -274.406L-423.378 -283.083L-433.265 -294.181L-421.36 -296.198L-402.191 -295.795L-386.452 -297.207L-397.752 -302.454L-395.129 -309.112L-386.654 -309.516L-376.767 -314.359L-358.001 -315.771L-358.405 -318.596L-339.639 -319.403L-330.963 -317.183L-320.067 -322.43L-305.942 -322.228L-308.969 -326.667L-307.153 -330.703L-294.642 -334.738L-277.895 -331.51L-284.957 -329.088L-265.99 -327.676L-257.717 -322.833L-253.883 -325.255L-231.889 -325.053L-208.482 -320.21L-197.385 -316.578L-192.34 -311.332L-197.183 -308.305L-210.5 -302.655L-212.72 -299.629L-201.42 -298.216L-186.892 -295.593L-182.049 -297.611L-170.346 -290.952L-169.943 -293.575L-159.45 -295.189L-132.008 -293.575L-124.34 -288.732L-89.2307 -287.118L-98.916 -294.988L-79.7469 -293.172L-67.4384 -293.373L-47.4622 -287.925L-35.3553 -281.267L-34.5484 -276.827L-14.1685 -268.353L3.9917 -264.115L-2.06171 -275.213L16.9054 -270.572L26.9944 -273.397L46.7689 -270.169L48.7867 -272.994L64.1219 -271.581L45.1546 -281.468L49.3922 -285.908L130.911 -279.047L146.852 -272.792L179.742 -264.721L209.605 -266.738L228.371 -264.922L241.688 -260.483L251.979 -252.614L266.709 -249.587L274.578 -251.807L288.703 -252.009L307.468 -249.991L321.391 -251.201L350.246 -241.516L355.29 -244.946L338.139 -251.807L334.507 -256.65L365.379 -253.623L381.522 -254.228L413.403 -249.184L432.572 -244.341L499.563 -199.748L495.527 -194.703L483.017 -195.51L499.563 -189.457L517.925 -179.973L526.399 -176.946L534.067 -172.104L536.085 -169.077L515.907 -171.498L502.589 -162.822L496.536 -161.409L493.308 -153.136L489.272 -145.872L492.702 -140.424L469.498 -148.697L457.189 -139.415L447.705 -143.855L444.881 -138.608L430.756 -140.424L437.011 -132.555L439.231 -120.852L445.082 -116.009L458.803 -113.386L477.165 -95.831L468.892 -95.2257L475.753 -85.1367L485.237 -79.8904L475.148 -73.6352L486.043 -59.5106L474.542 -56.4839L483.622 -43.9736L480.192 -32.2704L468.69 -40.9469L447.504 -58.9053L414.815 -86.3474L401.7 -103.095L401.901 -110.359L396.251 -116.009L407.753 -118.632L407.349 -133.766L408.762 -145.872L413.806 -155.356L400.489 -171.902L391.005 -170.893L397.462 -161.208L390.198 -148.294L365.379 -162.822L347.017 -158.786V-139.012L362.554 -131.748L345.403 -128.519L332.489 -127.309L323.813 -135.985L307.67 -137.801L302.626 -131.95L272.157 -133.967L245.522 -130.537L238.46 -106.929L228.371 -78.2762L244.917 -76.6619L256.418 -68.9943L268.121 -66.3712L268.928 -72.4246L280.228 -71.6174L306.056 -58.0982L315.54 -47.6056L318.365 -35.0953L329.462 -20.1636L340.157 -0.187378L338.139 18.1746L340.762 26.8511L336.726 41.7828L332.489 56.5128L330.673 63.9786L321.391 71.4445L315.136 71.6462L304.644 65.3911L296.37 74.8747L297.379 79.1121Z" fill="#ECECEC" stroke="black" stroke-width="0.289173" stroke-linecap="round" stroke-linejoin="round"/>
<path d="M185.031 184.159C185.031 183.288 184.886 182.512 184.596 181.83C184.305 181.147 183.826 180.538 183.159 180.001C182.505 179.449 181.62 178.941 180.502 178.477C179.399 177.998 178.02 177.526 176.365 177.061C174.783 176.611 173.354 176.118 172.076 175.581C170.799 175.044 169.703 174.427 168.789 173.73C167.889 173.033 167.199 172.22 166.72 171.292C166.241 170.348 166.002 169.252 166.002 168.004C166.002 166.784 166.263 165.674 166.785 164.673C167.308 163.671 168.041 162.807 168.984 162.082C169.942 161.356 171.067 160.797 172.359 160.405C173.666 160.013 175.095 159.817 176.649 159.817C178.869 159.817 180.785 160.238 182.397 161.08C184.022 161.922 185.278 163.061 186.163 164.498C187.063 165.921 187.513 167.518 187.513 169.288H184.835C184.835 167.909 184.509 166.683 183.855 165.609C183.217 164.52 182.288 163.671 181.068 163.061C179.864 162.437 178.39 162.125 176.649 162.125C174.907 162.125 173.441 162.394 172.25 162.931C171.075 163.453 170.182 164.157 169.572 165.043C168.977 165.914 168.68 166.886 168.68 167.96C168.68 168.715 168.825 169.412 169.115 170.05C169.405 170.675 169.877 171.262 170.53 171.814C171.198 172.351 172.076 172.859 173.165 173.338C174.254 173.803 175.596 174.245 177.193 174.666C178.877 175.131 180.372 175.646 181.678 176.212C182.984 176.778 184.088 177.431 184.988 178.172C185.887 178.898 186.57 179.747 187.034 180.719C187.499 181.692 187.731 182.824 187.731 184.116C187.731 185.408 187.455 186.569 186.904 187.599C186.367 188.616 185.604 189.479 184.618 190.191C183.645 190.902 182.491 191.446 181.156 191.823C179.835 192.201 178.39 192.39 176.823 192.39C175.415 192.39 174.014 192.208 172.621 191.845C171.227 191.482 169.95 190.923 168.789 190.169C167.642 189.399 166.72 188.412 166.023 187.208C165.341 186.003 165 184.566 165 182.896H167.656C167.656 184.232 167.925 185.357 168.462 186.271C168.999 187.186 169.71 187.926 170.596 188.492C171.496 189.058 172.483 189.472 173.557 189.733C174.645 189.98 175.734 190.103 176.823 190.103C178.492 190.103 179.936 189.857 181.156 189.363C182.389 188.87 183.34 188.18 184.008 187.295C184.69 186.395 185.031 185.35 185.031 184.159ZM195.504 158.511V191.954H192.913V158.511H195.504ZM194.916 178.716L193.762 178.063C193.849 176.669 194.132 175.363 194.611 174.144C195.09 172.924 195.736 171.85 196.549 170.921C197.376 169.992 198.342 169.267 199.445 168.744C200.563 168.221 201.796 167.96 203.146 167.96C204.322 167.96 205.374 168.12 206.303 168.439C207.232 168.759 208.023 169.267 208.677 169.963C209.33 170.66 209.823 171.553 210.157 172.641C210.506 173.73 210.68 175.058 210.68 176.626V191.954H208.067V176.604C208.067 174.978 207.842 173.708 207.392 172.794C206.942 171.865 206.303 171.204 205.476 170.812C204.649 170.421 203.669 170.225 202.537 170.225C201.288 170.225 200.192 170.5 199.249 171.052C198.32 171.589 197.536 172.293 196.897 173.164C196.273 174.02 195.794 174.942 195.46 175.929C195.127 176.902 194.945 177.831 194.916 178.716ZM231.713 187.73V175.581C231.713 174.463 231.48 173.498 231.016 172.685C230.551 171.872 229.869 171.248 228.969 170.812C228.069 170.377 226.959 170.159 225.638 170.159C224.418 170.159 223.33 170.377 222.372 170.812C221.428 171.233 220.681 171.807 220.129 172.533C219.592 173.244 219.324 174.035 219.324 174.906L216.711 174.884C216.711 173.999 216.929 173.142 217.364 172.315C217.8 171.487 218.417 170.747 219.215 170.094C220.013 169.441 220.964 168.926 222.067 168.548C223.185 168.156 224.411 167.96 225.747 167.96C227.431 167.96 228.911 168.243 230.188 168.809C231.48 169.375 232.489 170.225 233.215 171.357C233.941 172.489 234.303 173.912 234.303 175.624V187.012C234.303 187.825 234.362 188.666 234.478 189.537C234.608 190.408 234.79 191.127 235.022 191.693V191.954H232.257C232.083 191.432 231.945 190.778 231.843 189.994C231.756 189.196 231.713 188.441 231.713 187.73ZM232.322 178.237L232.366 180.24H227.249C225.914 180.24 224.716 180.364 223.657 180.61C222.611 180.843 221.726 181.191 221 181.655C220.274 182.105 219.716 182.65 219.324 183.288C218.946 183.927 218.758 184.653 218.758 185.466C218.758 186.308 218.968 187.077 219.389 187.774C219.824 188.47 220.434 189.029 221.218 189.45C222.016 189.857 222.96 190.06 224.048 190.06C225.5 190.06 226.777 189.791 227.88 189.254C228.998 188.717 229.92 188.013 230.646 187.142C231.371 186.271 231.858 185.321 232.104 184.29L233.237 185.792C233.048 186.518 232.7 187.266 232.191 188.035C231.698 188.79 231.052 189.501 230.254 190.169C229.455 190.822 228.512 191.359 227.423 191.78C226.349 192.186 225.13 192.39 223.765 192.39C222.227 192.39 220.884 192.099 219.737 191.519C218.605 190.938 217.72 190.147 217.081 189.145C216.457 188.129 216.145 186.983 216.145 185.705C216.145 184.544 216.392 183.506 216.885 182.592C217.379 181.663 218.09 180.879 219.019 180.24C219.962 179.587 221.094 179.093 222.415 178.76C223.751 178.411 225.246 178.237 226.901 178.237H232.322ZM243.884 173.425V191.954H241.293V168.396H243.775L243.884 173.425ZM243.296 178.716L242.142 178.063C242.229 176.669 242.512 175.363 242.991 174.144C243.47 172.924 244.116 171.85 244.929 170.921C245.756 169.992 246.721 169.267 247.825 168.744C248.942 168.221 250.176 167.96 251.526 167.96C252.702 167.96 253.754 168.12 254.683 168.439C255.612 168.759 256.403 169.267 257.056 169.963C257.709 170.66 258.203 171.553 258.537 172.641C258.885 173.73 259.059 175.058 259.059 176.626V191.954H256.447V176.604C256.447 174.978 256.222 173.708 255.772 172.794C255.322 171.865 254.683 171.204 253.856 170.812C253.028 170.421 252.049 170.225 250.916 170.225C249.668 170.225 248.572 170.5 247.628 171.052C246.7 171.589 245.916 172.293 245.277 173.164C244.653 174.02 244.174 174.942 243.84 175.929C243.506 176.902 243.325 177.831 243.296 178.716ZM281.311 168.396H283.728V191.54C283.728 193.587 283.336 195.343 282.552 196.809C281.783 198.275 280.687 199.4 279.265 200.184C277.857 200.968 276.195 201.36 274.279 201.36C273.306 201.36 272.305 201.208 271.274 200.903C270.258 200.613 269.293 200.163 268.378 199.553C267.478 198.958 266.709 198.217 266.07 197.332L267.529 195.743C268.487 196.904 269.51 197.753 270.599 198.29C271.688 198.842 272.863 199.117 274.126 199.117C275.621 199.117 276.884 198.82 277.915 198.225C278.96 197.63 279.751 196.773 280.288 195.655C280.84 194.538 281.115 193.195 281.115 191.627V173.578L281.311 168.396ZM264.764 180.414V179.957C264.764 178.128 264.967 176.481 265.374 175.015C265.795 173.534 266.397 172.271 267.181 171.226C267.965 170.167 268.915 169.361 270.033 168.809C271.165 168.243 272.443 167.96 273.865 167.96C275.229 167.96 276.441 168.185 277.501 168.635C278.561 169.085 279.475 169.731 280.245 170.573C281.014 171.415 281.631 172.417 282.095 173.578C282.574 174.739 282.923 176.031 283.14 177.453V183.267C282.966 184.602 282.647 185.829 282.182 186.946C281.718 188.049 281.101 189.015 280.332 189.842C279.562 190.655 278.633 191.286 277.545 191.736C276.471 192.172 275.229 192.39 273.821 192.39C272.413 192.39 271.151 192.099 270.033 191.519C268.915 190.938 267.965 190.118 267.181 189.058C266.397 187.984 265.795 186.714 265.374 185.248C264.967 183.782 264.764 182.171 264.764 180.414ZM267.377 179.957V180.414C267.377 181.793 267.515 183.071 267.79 184.246C268.066 185.422 268.487 186.446 269.053 187.316C269.619 188.187 270.338 188.87 271.209 189.363C272.08 189.857 273.103 190.103 274.279 190.103C275.774 190.103 277.029 189.82 278.046 189.254C279.061 188.674 279.867 187.912 280.462 186.968C281.057 186.01 281.493 184.965 281.768 183.833V177.061C281.609 176.292 281.362 175.508 281.028 174.71C280.709 173.912 280.259 173.178 279.678 172.511C279.112 171.829 278.387 171.284 277.501 170.878C276.63 170.457 275.571 170.246 274.322 170.246C273.132 170.246 272.094 170.493 271.209 170.987C270.338 171.48 269.619 172.17 269.053 173.055C268.487 173.926 268.066 174.949 267.79 176.125C267.515 177.301 267.377 178.578 267.377 179.957ZM293.134 158.511V191.954H290.543V158.511H293.134ZM292.546 178.716L291.392 178.063C291.479 176.669 291.762 175.363 292.241 174.144C292.72 172.924 293.366 171.85 294.179 170.921C295.007 169.992 295.972 169.267 297.075 168.744C298.193 168.221 299.427 167.96 300.776 167.96C301.952 167.96 303.005 168.12 303.933 168.439C304.862 168.759 305.654 169.267 306.307 169.963C306.96 170.66 307.453 171.553 307.787 172.641C308.136 173.73 308.31 175.058 308.31 176.626V191.954H305.697V176.604C305.697 174.978 305.472 173.708 305.022 172.794C304.572 171.865 303.933 171.204 303.106 170.812C302.279 170.421 301.299 170.225 300.167 170.225C298.918 170.225 297.823 170.5 296.879 171.052C295.95 171.589 295.166 172.293 294.528 173.164C293.903 174.02 293.424 174.942 293.091 175.929C292.757 176.902 292.575 177.831 292.546 178.716ZM329.343 187.73V175.581C329.343 174.463 329.11 173.498 328.646 172.685C328.181 171.872 327.499 171.248 326.599 170.812C325.699 170.377 324.589 170.159 323.268 170.159C322.049 170.159 320.96 170.377 320.002 170.812C319.058 171.233 318.311 171.807 317.759 172.533C317.222 173.244 316.954 174.035 316.954 174.906L314.341 174.884C314.341 173.999 314.559 173.142 314.994 172.315C315.43 171.487 316.047 170.747 316.845 170.094C317.643 169.441 318.594 168.926 319.697 168.548C320.815 168.156 322.041 167.96 323.377 167.96C325.061 167.96 326.541 168.243 327.818 168.809C329.11 169.375 330.119 170.225 330.845 171.357C331.571 172.489 331.934 173.912 331.934 175.624V187.012C331.934 187.825 331.992 188.666 332.108 189.537C332.238 190.408 332.42 191.127 332.652 191.693V191.954H329.887C329.713 191.432 329.575 190.778 329.473 189.994C329.386 189.196 329.343 188.441 329.343 187.73ZM329.952 178.237L329.996 180.24H324.879C323.544 180.24 322.346 180.364 321.287 180.61C320.242 180.843 319.356 181.191 318.63 181.655C317.905 182.105 317.346 182.65 316.954 183.288C316.576 183.927 316.388 184.653 316.388 185.466C316.388 186.308 316.598 187.077 317.019 187.774C317.455 188.47 318.064 189.029 318.848 189.45C319.646 189.857 320.59 190.06 321.678 190.06C323.13 190.06 324.407 189.791 325.511 189.254C326.628 188.717 327.55 188.013 328.276 187.142C329.002 186.271 329.488 185.321 329.734 184.29L330.867 185.792C330.678 186.518 330.33 187.266 329.822 188.035C329.328 188.79 328.682 189.501 327.884 190.169C327.086 190.822 326.142 191.359 325.053 191.78C323.979 192.186 322.76 192.39 321.395 192.39C319.857 192.39 318.514 192.099 317.368 191.519C316.235 190.938 315.35 190.147 314.711 189.145C314.087 188.129 313.775 186.983 313.775 185.705C313.775 184.544 314.022 183.506 314.515 182.592C315.009 181.663 315.72 180.879 316.649 180.24C317.592 179.587 318.725 179.093 320.045 178.76C321.381 178.411 322.876 178.237 324.531 178.237H329.952ZM341.818 168.396V191.954H339.227V168.396H341.818ZM338.77 161.581C338.77 161.087 338.923 160.674 339.227 160.34C339.547 159.991 339.982 159.817 340.534 159.817C341.086 159.817 341.521 159.991 341.84 160.34C342.174 160.674 342.341 161.087 342.341 161.581C342.341 162.06 342.174 162.473 341.84 162.822C341.521 163.156 341.086 163.323 340.534 163.323C339.982 163.323 339.547 163.156 339.227 162.822C338.923 162.473 338.77 162.06 338.77 161.581Z" fill="black"/>
<path d="M261 206.36H246V221.36H261V206.36Z" fill="#E21313"/>
</g>
<defs>
<clipPath id="clip0_9_1356">
<rect width="480" height="404" fill="white"/>
</clipPath>
</defs>
</svg>
